<svg width="70" height="70" viewBox="0 0 70 70" fill="none" xmlns="http://www.w3.org/2000/svg">
<rect width="70" height="70" rx="18" fill="#1EAEFF" fill-opacity="0.1"/>
<path d="M30.42 23.58C30.2341 23.3925 30.0129 23.2438 29.7692 23.1422C29.5254 23.0407 29.264 22.9884 29 22.9884C28.736 22.9884 28.4746 23.0407 28.2308 23.1422C27.9871 23.2438 27.7659 23.3925 27.58 23.58L17.58 33.58C17.3925 33.7659 17.2438 33.9871 17.1422 34.2308C17.0407 34.4746 16.9884 34.736 16.9884 35C16.9884 35.264 17.0407 35.5254 17.1422 35.7692C17.2438 36.0129 17.3925 36.2341 17.58 36.42L27.58 46.42C27.7659 46.6075 27.9871 46.7562 28.2308 46.8578C28.4746 46.9593 28.736 47.0116 29 47.0116C29.264 47.0116 29.5254 46.9593 29.7692 46.8578C30.0129 46.7562 30.2341 46.6075 30.42 46.42C30.6075 46.2341 30.7562 46.0129 30.8578 45.7692C30.9593 45.5254 31.0116 45.264 31.0116 45C31.0116 44.736 30.9593 44.4746 30.8578 44.2308C30.7562 43.9871 30.6075 43.7659 30.42 43.58L21.82 35L30.42 26.42C30.6075 26.2341 30.7562 26.0129 30.8578 25.7692C30.9593 25.5254 31.0116 25.264 31.0116 25C31.0116 24.736 30.9593 24.4746 30.8578 24.2308C30.7562 23.9871 30.6075 23.7659 30.42 23.58ZM52.42 33.58L42.42 23.58C42.2335 23.3935 42.0121 23.2456 41.7685 23.1447C41.5249 23.0438 41.2637 22.9918 41 22.9918C40.4674 22.9918 39.9566 23.2034 39.58 23.58C39.3935 23.7665 39.2456 23.9879 39.1447 24.2315C39.0438 24.4751 38.9918 24.7363 38.9918 25C38.9918 25.5326 39.2034 26.0434 39.58 26.42L48.18 35L39.58 43.58C39.3925 43.7659 39.2438 43.9871 39.1422 44.2308C39.0407 44.4746 38.9884 44.736 38.9884 45C38.9884 45.264 39.0407 45.5254 39.1422 45.7692C39.2438 46.0129 39.3925 46.2341 39.58 46.42C39.7659 46.6075 39.9871 46.7562 40.2308 46.8578C40.4746 46.9593 40.736 47.0116 41 47.0116C41.264 47.0116 41.5254 46.9593 41.7692 46.8578C42.0129 46.7562 42.2341 46.6075 42.42 46.42L52.42 36.42C52.6075 36.2341 52.7562 36.0129 52.8578 35.7692C52.9593 35.5254 53.0116 35.264 53.0116 35C53.0116 34.736 52.9593 34.4746 52.8578 34.2308C52.7562 33.9871 52.6075 33.7659 52.42 33.58Z" fill="#1EAEFF"/>
</svg>
