<svg width="80" height="80" viewBox="0 0 80 80" fill="none" xmlns="http://www.w3.org/2000/svg">
<g clip-path="url(#clip0_19_1368)">
<path d="M59.0331 12.7097L21.4256 12.9585L3.1714 32.038L40.4631 73.5407L77.1524 32.0606L59.0331 12.7097Z" fill="#BEFCFA"/>
<path d="M21.4198 12.9534L3.17015 32.0272L77.1327 32.0497L59.0179 12.7046L21.4198 12.9534Z" fill="#8FEFFF"/>
<path d="M3.17996 32.0432L40.4678 73.5412L77.1535 32.0658L3.17996 32.0432Z" fill="#C7FFFF"/>
<path d="M26.3031 32.0338L53.8879 32.0363L39.8427 12.8231L26.3031 32.0338Z" fill="#B6F9FC"/>
<path d="M21.4069 12.936L39.6987 14.629L26.2956 32.0226L21.4069 12.936Z" fill="#74DFF7"/>
<path d="M39.6907 14.6555L59.0101 12.7134L53.8752 32.0539L39.6907 14.6555Z" fill="#74DFF7"/>
<path d="M26.3204 32.0466L40.1377 73.5569L53.9133 32.049L26.3204 32.0466Z" fill="#F0FFFE"/>
<path d="M21.4035 12.9403L39.8331 14.6354L58.9969 12.7008L21.4035 12.9403Z" fill="#50BEC9"/>
</g>
<defs>
<clipPath id="clip0_19_1368">
<rect width="75" height="67" fill="white" transform="translate(2 6)"/>
</clipPath>
</defs>
</svg>
