<svg width="70" height="70" viewBox="0 0 70 70" fill="none" xmlns="http://www.w3.org/2000/svg">
<rect width="70" height="70" rx="18" fill="#FFC01E" fill-opacity="0.1"/>
<path d="M45.5 40.25L50.75 45.5M50.75 45.5L45.5 50.75M50.75 45.5H46.4955C44.8519 45.5 44.0301 45.5 43.2841 45.2735C42.6237 45.0729 42.0094 44.7441 41.4762 44.3059C40.8739 43.8108 40.418 43.127 39.5063 41.7595L39.0833 41.125M45.5 19.25L50.75 24.5M50.75 24.5L45.5 29.75M50.75 24.5H46.4955C44.8519 24.5 44.0301 24.5 43.2841 24.7265C42.6237 24.9271 42.0094 25.2559 41.4762 25.6941C40.8739 26.1892 40.418 26.8729 39.5063 28.2405L30.4937 41.7595C29.582 43.1271 29.1261 43.8108 28.5238 44.3059C27.9906 44.7441 27.3763 45.0729 26.7159 45.2735C25.9699 45.5 25.1481 45.5 23.5045 45.5H19.25M19.25 24.5H23.5045C25.1481 24.5 25.9699 24.5 26.7159 24.7265C27.3763 24.9271 27.9906 25.2559 28.5238 25.6941C29.1261 26.1892 29.582 26.8729 30.4937 28.2405L30.9167 28.875" stroke="#FFC01E" stroke-width="3.5" stroke-linecap="round" stroke-linejoin="round"/>
</svg>
