<svg width="70" height="70" viewBox="0 0 70 70" fill="none" xmlns="http://www.w3.org/2000/svg">
<rect width="70" height="70" rx="18" fill="#FFC01E" fill-opacity="0.1"/>
<path d="M36 24.5V52.5M36 24.5H29.8125C28.9008 24.5 28.0265 24.1313 27.3818 23.4749C26.7372 22.8185 26.375 21.9283 26.375 21C26.375 20.0717 26.7372 19.1815 27.3818 18.5251C28.0265 17.8687 28.9008 17.5 29.8125 17.5C34.625 17.5 36 24.5 36 24.5ZM36 24.5H42.1875C43.0992 24.5 43.9735 24.1313 44.6182 23.4749C45.2628 22.8185 45.625 21.9283 45.625 21C45.625 20.0717 45.2628 19.1815 44.6182 18.5251C43.9735 17.8687 43.0992 17.5 42.1875 17.5C37.375 17.5 36 24.5 36 24.5ZM50 33.25V46.9C50 48.8602 50 49.8403 49.6185 50.589C49.283 51.2475 48.7475 51.783 48.089 52.1185C47.3403 52.5 46.3602 52.5 44.4 52.5L27.6 52.5C25.6398 52.5 24.6597 52.5 23.911 52.1185C23.2525 51.783 22.717 51.2475 22.3815 50.589C22 49.8403 22 48.8602 22 46.9V33.25M18.5 27.3L18.5 30.45C18.5 31.4301 18.5 31.9201 18.6907 32.2945C18.8585 32.6238 19.1262 32.8915 19.4555 33.0593C19.8299 33.25 20.3199 33.25 21.3 33.25L50.7 33.25C51.6801 33.25 52.1701 33.25 52.5445 33.0593C52.8738 32.8915 53.1415 32.6238 53.3093 32.2945C53.5 31.9201 53.5 31.4301 53.5 30.45V27.3C53.5 26.3199 53.5 25.8299 53.3093 25.4555C53.1415 25.1262 52.8738 24.8585 52.5445 24.6907C52.1701 24.5 51.6801 24.5 50.7 24.5L21.3 24.5C20.3199 24.5 19.8299 24.5 19.4555 24.6907C19.1262 24.8585 18.8585 25.1262 18.6907 25.4555C18.5 25.8299 18.5 26.3199 18.5 27.3Z" stroke="#FFC01E" stroke-width="3.5" stroke-linecap="round" stroke-linejoin="round"/>
</svg>
