<svg width="70" height="70" viewBox="0 0 70 70" fill="none" xmlns="http://www.w3.org/2000/svg">
<rect width="70" height="70" rx="18" fill="#FFC01E" fill-opacity="0.1"/>
<path d="M18.3742 29.75H51.6242M31.4992 19.25L27.9992 29.75L34.9992 49.875L41.9992 29.75L38.4992 19.25M36.0747 49.4594L51.7523 30.6463C52.018 30.3274 52.1509 30.168 52.2016 29.99C52.2464 29.8331 52.2464 29.6669 52.2016 29.51C52.1509 29.332 52.018 29.1726 51.7523 28.8537L44.169 19.7537C44.0147 19.5686 43.9375 19.476 43.8429 19.4094C43.7591 19.3505 43.6656 19.3067 43.5667 19.28C43.455 19.25 43.3345 19.25 43.0935 19.25H26.9049C26.6639 19.25 26.5434 19.25 26.4317 19.28C26.3327 19.3067 26.2392 19.3505 26.1554 19.4094C26.0609 19.476 25.9837 19.5686 25.8294 19.7537L18.2461 28.8537C17.9804 29.1726 17.8475 29.332 17.7968 29.51C17.752 29.6669 17.752 29.8331 17.7968 29.99C17.8475 30.168 17.9804 30.3274 18.2461 30.6463L33.9237 49.4594C34.293 49.9026 34.4777 50.1242 34.6988 50.205C34.8928 50.2759 35.1056 50.2759 35.2996 50.205C35.5207 50.1242 35.7054 49.9026 36.0747 49.4594Z" stroke="#FFC01E" stroke-width="3.5" stroke-linecap="round" stroke-linejoin="round"/>
</svg>
