<svg width="70" height="70" viewBox="0 0 70 70" fill="none" xmlns="http://www.w3.org/2000/svg">
<rect width="70" height="70" rx="18" fill="#1EAEFF" fill-opacity="0.1"/>
<path d="M35 40.25C37.8995 40.25 40.25 37.8995 40.25 35C40.25 32.1005 37.8995 29.75 35 29.75C32.1005 29.75 29.75 32.1005 29.75 35C29.75 37.8995 32.1005 40.25 35 40.25Z" stroke="#1EAEFF" stroke-width="3.5" stroke-linecap="round" stroke-linejoin="round"/>
<path d="M46.7727 39.7727C46.561 40.2526 46.4978 40.7849 46.5914 41.3009C46.6849 41.817 46.931 42.2932 47.2977 42.6682L47.3932 42.7636C47.689 43.0591 47.9237 43.4101 48.0838 43.7963C48.244 44.1826 48.3264 44.5966 48.3264 45.0148C48.3264 45.4329 48.244 45.847 48.0838 46.2332C47.9237 46.6195 47.689 46.9704 47.3932 47.2659C47.0977 47.5617 46.7468 47.7964 46.3605 47.9566C45.9742 48.1167 45.5602 48.1991 45.142 48.1991C44.7239 48.1991 44.3099 48.1167 43.9236 47.9566C43.5373 47.7964 43.1864 47.5617 42.8909 47.2659L42.7955 47.1705C42.4205 46.8037 41.9443 46.5577 41.4282 46.4641C40.9121 46.3705 40.3798 46.4337 39.9 46.6455C39.4295 46.8471 39.0282 47.182 38.7455 47.6088C38.4628 48.0356 38.3111 48.5358 38.3091 49.0477V49.3182C38.3091 50.1621 37.9739 50.9714 37.3772 51.5681C36.7805 52.1648 35.9711 52.5 35.1273 52.5C34.2834 52.5 33.4741 52.1648 32.8774 51.5681C32.2807 50.9714 31.9455 50.1621 31.9455 49.3182V49.175C31.9331 48.6484 31.7627 48.1377 31.4563 47.7093C31.1498 47.2809 30.7216 46.9545 30.2273 46.7727C29.7474 46.561 29.2151 46.4978 28.6991 46.5914C28.183 46.6849 27.7068 46.931 27.3318 47.2977L27.2364 47.3932C26.9409 47.689 26.5899 47.9237 26.2037 48.0838C25.8174 48.244 25.4034 48.3264 24.9852 48.3264C24.5671 48.3264 24.153 48.244 23.7668 48.0838C23.3805 47.9237 23.0296 47.689 22.7341 47.3932C22.4383 47.0977 22.2036 46.7468 22.0434 46.3605C21.8833 45.9742 21.8009 45.5602 21.8009 45.142C21.8009 44.7239 21.8833 44.3099 22.0434 43.9236C22.2036 43.5373 22.4383 43.1864 22.7341 42.8909L22.8295 42.7955C23.1963 42.4205 23.4423 41.9443 23.5359 41.4282C23.6295 40.9121 23.5663 40.3798 23.3545 39.9C23.1529 39.4295 22.818 39.0282 22.3912 38.7455C21.9644 38.4628 21.4642 38.3111 20.9523 38.3091H20.6818C19.8379 38.3091 19.0286 37.9739 18.4319 37.3772C17.8352 36.7805 17.5 35.9711 17.5 35.1273C17.5 34.2834 17.8352 33.4741 18.4319 32.8774C19.0286 32.2807 19.8379 31.9455 20.6818 31.9455H20.825C21.3516 31.9331 21.8623 31.7627 22.2907 31.4563C22.7191 31.1498 23.0455 30.7216 23.2273 30.2273C23.439 29.7474 23.5022 29.2151 23.4086 28.6991C23.3151 28.183 23.069 27.7068 22.7023 27.3318L22.6068 27.2364C22.311 26.9409 22.0763 26.5899 21.9162 26.2037C21.7561 25.8174 21.6736 25.4034 21.6736 24.9852C21.6736 24.5671 21.7561 24.153 21.9162 23.7668C22.0763 23.3805 22.311 23.0296 22.6068 22.7341C22.9023 22.4383 23.2532 22.2036 23.6395 22.0434C24.0258 21.8833 24.4398 21.8009 24.858 21.8009C25.2761 21.8009 25.6901 21.8833 26.0764 22.0434C26.4627 22.2036 26.8136 22.4383 27.1091 22.7341L27.2045 22.8295C27.5795 23.1963 28.0557 23.4423 28.5718 23.5359C29.0879 23.6295 29.6202 23.5663 30.1 23.3545H30.2273C30.6978 23.1529 31.0991 22.818 31.3818 22.3912C31.6645 21.9644 31.8161 21.4642 31.8182 20.9523V20.6818C31.8182 19.8379 32.1534 19.0286 32.7501 18.4319C33.3468 17.8352 34.1561 17.5 35 17.5C35.8439 17.5 36.6532 17.8352 37.2499 18.4319C37.8466 19.0286 38.1818 19.8379 38.1818 20.6818V20.825C38.1839 21.3369 38.3356 21.8371 38.6182 22.2639C38.9009 22.6907 39.3022 23.0256 39.7727 23.2273C40.2526 23.439 40.7849 23.5022 41.3009 23.4086C41.817 23.3151 42.2932 23.069 42.6682 22.7023L42.7636 22.6068C43.0591 22.311 43.4101 22.0763 43.7963 21.9162C44.1826 21.7561 44.5966 21.6736 45.0148 21.6736C45.4329 21.6736 45.847 21.7561 46.2332 21.9162C46.6195 22.0763 46.9704 22.311 47.2659 22.6068C47.5617 22.9023 47.7964 23.2532 47.9566 23.6395C48.1167 24.0258 48.1991 24.4398 48.1991 24.858C48.1991 25.2761 48.1167 25.6901 47.9566 26.0764C47.7964 26.4627 47.5617 26.8136 47.2659 27.1091L47.1705 27.2045C46.8037 27.5795 46.5577 28.0557 46.4641 28.5718C46.3705 29.0879 46.4337 29.6202 46.6455 30.1V30.2273C46.8471 30.6978 47.182 31.0991 47.6088 31.3818C48.0356 31.6645 48.5358 31.8161 49.0477 31.8182H49.3182C50.1621 31.8182 50.9714 32.1534 51.5681 32.7501C52.1648 33.3468 52.5 34.1561 52.5 35C52.5 35.8439 52.1648 36.6532 51.5681 37.2499C50.9714 37.8466 50.1621 38.1818 49.3182 38.1818H49.175C48.6631 38.1839 48.1629 38.3356 47.7361 38.6182C47.3093 38.9009 46.9744 39.3022 46.7727 39.7727Z" stroke="#1EAEFF" stroke-width="3.5" stroke-linecap="round" stroke-linejoin="round"/>
</svg>
