<svg width="80" height="80" viewBox="0 0 80 80" fill="none" xmlns="http://www.w3.org/2000/svg">
<g clip-path="url(#clip0_19_1351)">
<path d="M39.8669 3.67627L18.6081 41.2415L41.1911 78.2209L62.7644 40.6511L39.8669 3.67627Z" fill="#E8437E"/>
<path d="M62.7705 40.6317L39.8872 3.67552L18.6415 41.2218L62.7705 40.6317Z" fill="#F47DB3"/>
<path d="M39.9218 3.67711L18.6415 41.2638L33.004 41.0743L39.9218 3.67711Z" fill="#FFABD7"/>
<path d="M39.9481 3.67779L18.6415 41.2818L23.6674 41.2182L39.9481 3.67779Z" fill="#FCCDE4"/>
<path d="M39.8986 3.66937L62.774 40.6121L48.4398 40.8013L39.8986 3.66937Z" fill="#FFABD7"/>
<path d="M39.9041 3.66937L62.7757 40.6045L57.6288 40.6734L39.9041 3.66937Z" fill="#FCCDE4"/>
<path d="M41.1602 78.2283L18.5986 41.2803L32.933 41.0911L41.1602 78.2283Z" fill="#EA689D"/>
<path d="M41.1547 78.2284L18.5969 41.2881L23.6059 41.2247L41.1547 78.2284Z" fill="#FF8AC5"/>
<path d="M41.1361 78.22L62.7312 40.6286L48.3686 40.8181L41.1361 78.22Z" fill="#EA689D"/>
<path d="M41.1099 78.2192L62.7312 40.6109L57.5671 40.6799L41.1099 78.2192Z" fill="#FF8AC5"/>
</g>
<defs>
<clipPath id="clip0_19_1351">
<rect width="50" height="80" fill="white" transform="translate(15)"/>
</clipPath>
</defs>
</svg>
