<svg width="22" height="22" viewBox="0 0 22 22" fill="none" xmlns="http://www.w3.org/2000/svg">
<path d="M10.9999 2.05945C8.8233 2.05954 6.7177 2.83414 5.05991 4.24464C3.40212 5.65515 2.30032 7.60952 1.95165 9.75806C1.60298 11.9066 2.03019 14.1091 3.15685 15.9715C4.28351 17.8338 6.03609 19.2346 8.101 19.923C8.55934 20.0032 8.73121 19.7282 8.73121 19.4876C8.73121 19.2699 8.71974 18.548 8.71974 17.7803C6.41661 18.2042 5.82078 17.2188 5.63744 16.7032C5.43401 16.2017 5.11153 15.7573 4.69786 15.4084C4.37703 15.2365 3.91869 14.8126 4.68639 14.8011C4.97953 14.8329 5.26068 14.9349 5.50602 15.0985C5.75136 15.2621 5.95366 15.4823 6.09578 15.7407C6.22115 15.9659 6.38973 16.1642 6.59187 16.3241C6.794 16.4841 7.02571 16.6026 7.27372 16.6729C7.52173 16.7431 7.78117 16.7637 8.03717 16.7335C8.29316 16.7034 8.54068 16.623 8.76555 16.4969C8.80523 16.0309 9.01292 15.5952 9.34994 15.2709C7.31036 15.0418 5.17911 14.2511 5.17911 10.7449C5.16623 9.83386 5.50241 8.95242 6.11869 8.28135C5.83845 7.48955 5.87124 6.62061 6.21036 5.85218C6.21036 5.85218 6.97804 5.61155 8.73119 6.79177C10.2311 6.37924 11.8146 6.37924 13.3145 6.79177C15.0676 5.6001 15.8354 5.85218 15.8354 5.85218C16.1745 6.6206 16.2073 7.48956 15.927 8.28135C16.5452 8.95127 16.8816 9.83348 16.8666 10.7449C16.8666 14.2626 14.7239 15.0418 12.6843 15.2709C12.9031 15.4927 13.0716 15.7589 13.1783 16.0515C13.2851 16.3441 13.3276 16.6563 13.3031 16.9668C13.3031 18.1928 13.2916 19.1782 13.2916 19.4876C13.2916 19.7282 13.4635 20.0147 13.9218 19.923C15.9831 19.229 17.7306 17.825 18.8525 15.9617C19.9743 14.0983 20.3975 11.897 20.0464 9.7505C19.6953 7.60404 18.5929 5.65221 16.9358 4.24342C15.2787 2.83463 13.1749 2.06058 10.9999 2.05945Z" fill="black"/>
</svg>
