<svg width="22" height="22" viewBox="0 0 22 22" fill="none" xmlns="http://www.w3.org/2000/svg">
<path d="M20 5.68314C19.3417 5.97025 18.6455 6.16106 17.9328 6.2497C18.6839 5.80414 19.2454 5.0986 19.5111 4.26673C18.8078 4.68382 18.0384 4.97753 17.2361 5.13517C16.7442 4.60993 16.1057 4.24477 15.4035 4.08713C14.7014 3.92949 13.968 3.98667 13.2988 4.25122C12.6296 4.51578 12.0553 4.97549 11.6508 5.57063C11.2462 6.16577 11.03 6.86882 11.0302 7.58845C11.0302 7.87282 11.0542 8.14626 11.1133 8.40657C9.68603 8.3366 8.28961 7.96617 7.01533 7.31951C5.74105 6.67286 4.6176 5.76453 3.71844 4.65392C3.25777 5.44345 3.11535 6.37888 3.32018 7.26973C3.52502 8.16059 4.06169 8.93988 4.82094 9.44892C4.25302 9.43369 3.69708 9.28214 3.2 9.00704V9.04642C3.20095 9.87486 3.48729 10.6777 4.01082 11.3197C4.53434 11.9618 5.26308 12.4039 6.07437 12.5716C5.76745 12.6525 5.45114 12.6922 5.13375 12.6897C4.9058 12.6938 4.67808 12.6732 4.45453 12.6284C4.68634 13.3405 5.13319 13.9632 5.73356 14.4108C6.33392 14.8584 7.05827 15.1088 7.80688 15.1277C6.53696 16.1208 4.97075 16.6596 3.35859 16.6578C3.06438 16.6578 2.78219 16.6447 2.5 16.6086C4.1405 17.6658 6.05215 18.225 8.00375 18.2186C14.6056 18.2186 18.215 12.7499 18.215 8.00954C18.215 7.85095 18.2095 7.69782 18.2019 7.54579C18.9095 7.03937 19.5188 6.40816 20 5.68314Z" fill="#03A9F4"/>
</svg>
