<svg width="80" height="80" viewBox="0 0 80 80" fill="none" xmlns="http://www.w3.org/2000/svg">
<g clip-path="url(#clip0_19_1318)">
<path d="M56.8719 13.7378L19.7867 14.0909L1.93266 32.9464L39.0236 73.7564L74.8841 32.7648L56.8719 13.7378Z" fill="#BEFCFA"/>
<path d="M19.8144 14.0809L1.96899 32.9191L74.8857 32.7374L56.882 13.7279L19.8144 14.0809Z" fill="#FCCDE4"/>
<path d="M1.93132 32.9608L39.0145 73.7582L74.8675 32.7792L1.93132 32.9608Z" fill="#EA689D"/>
<path d="M24.773 32.87L51.9698 32.7932L37.9728 13.8989L24.773 32.87Z" fill="#F47DB3"/>
<path d="M19.8159 14.0838L38.0088 15.6967L24.7834 32.8886L19.8159 14.0838Z" fill="#FFABD7"/>
<path d="M37.9937 15.669L56.8935 13.7028L51.9725 32.7841L37.9937 15.669Z" fill="#FFABD7"/>
<path d="M24.7358 32.895L38.6774 73.7808L51.952 32.8181L24.7358 32.895Z" fill="#E8437E"/>
<path d="M19.8348 14.0699L38.0102 15.6718L56.8934 13.6979L19.8348 14.0699Z" fill="white"/>
</g>
<defs>
<clipPath id="clip0_19_1318">
<rect width="77" height="65" fill="white" transform="translate(1 10)"/>
</clipPath>
</defs>
</svg>
