<svg width="80" height="80" viewBox="0 0 80 80" fill="none" xmlns="http://www.w3.org/2000/svg">
<g clip-path="url(#clip0_19_1334)">
<path d="M40.1867 0.108754L16.7725 39.5362L39.5142 78.9904L63.2576 39.5591L40.1867 0.108754Z" fill="#74DFF7"/>
<path d="M63.1753 39.5101L40.1386 0.105143L16.759 39.4873L63.1753 39.5101Z" fill="#AEF7FF"/>
<path d="M40.1394 0.0718251L16.7592 39.4549L31.8428 39.4649L40.1394 0.0718251Z" fill="#C7FFFF"/>
<path d="M40.1317 0.0718434L16.7571 39.4452L22.0289 39.449L40.1317 0.0718434Z" fill="#F0FFFE"/>
<path d="M40.0568 0.111781L63.1754 39.5992L48.0402 39.5945L40.0568 0.111781Z" fill="#C7FFFF"/>
<path d="M40.0284 0.112915L63.1754 39.615L57.7392 39.6159L40.0284 0.112915Z" fill="#F0FFFE"/>
<path d="M39.6436 78.9875L16.855 39.4963L31.9917 39.5064L39.6436 78.9875Z" fill="#8FEFFF"/>
<path d="M39.674 78.9863L16.855 39.4793L22.1536 39.4831L39.674 78.9863Z" fill="#B6F9FC"/>
<path d="M39.5631 79.0261L63.2711 39.6405L48.1897 39.6358L39.5631 79.0261Z" fill="#8FEFFF"/>
<path d="M39.5707 79.0262L63.2732 39.6502L57.8642 39.651L39.5707 79.0262Z" fill="#B6F9FC"/>
</g>
<defs>
<clipPath id="clip0_19_1334">
<rect width="44" height="75" fill="white" transform="translate(18 2)"/>
</clipPath>
</defs>
</svg>
