<svg width="22" height="22" viewBox="0 0 22 22" fill="none" xmlns="http://www.w3.org/2000/svg">
    <path d="M11 2.05945C8.82336 2.05954 6.71776 2.83414 5.05997 4.24464C3.40218 5.65515 2.30038 7.60952 1.95171 9.75806C1.60304 11.9066 2.03025 14.1091 3.15691 15.9715C4.28357 17.8338 6.03615 19.2346 8.10106 19.923C8.5594 20.0032 8.73127 19.7282 8.73127 19.4876C8.73127 19.2699 8.71981 18.548 8.71981 17.7803C6.41667 18.2042 5.82084 17.2188 5.6375 16.7032C5.43407 16.2017 5.11159 15.7573 4.69792 15.4084C4.37709 15.2365 3.91875 14.8126 4.68645 14.8011C4.97959 14.8329 5.26074 14.9349 5.50608 15.0985C5.75142 15.2621 5.95372 15.4823 6.09584 15.7407C6.22121 15.9659 6.38979 16.1642 6.59193 16.3241C6.79406 16.4841 7.02577 16.6026 7.27378 16.6729C7.52179 16.7431 7.78123 16.7637 8.03723 16.7335C8.29322 16.7034 8.54074 16.623 8.76561 16.4969C8.80529 16.0309 9.01298 15.5952 9.35 15.2709C7.31042 15.0418 5.17917 14.2511 5.17917 10.7449C5.16629 9.83386 5.50247 8.95242 6.11875 8.28135C5.83851 7.48955 5.8713 6.62061 6.21042 5.85218C6.21042 5.85218 6.9781 5.61155 8.73125 6.79177C10.2312 6.37924 11.8147 6.37924 13.3146 6.79177C15.0677 5.6001 15.8354 5.85218 15.8354 5.85218C16.1746 6.6206 16.2074 7.48956 15.9271 8.28135C16.5452 8.95127 16.8817 9.83348 16.8667 10.7449C16.8667 14.2626 14.7239 15.0418 12.6844 15.2709C12.9031 15.4927 13.0716 15.7589 13.1784 16.0515C13.2852 16.3441 13.3277 16.6563 13.3031 16.9668C13.3031 18.1928 13.2917 19.1782 13.2917 19.4876C13.2917 19.7282 13.4635 20.0147 13.9219 19.923C15.9831 19.229 17.7307 17.825 18.8525 15.9617C19.9744 14.0983 20.3976 11.897 20.0465 9.7505C19.6954 7.60404 18.5929 5.65221 16.9358 4.24342C15.2788 2.83463 13.175 2.06058 11 2.05945Z" fill="#1B2327"/>
</svg>
