<svg width="131" height="44" viewBox="0 0 131 44" fill="none" xmlns="http://www.w3.org/2000/svg">
<path d="M27.1646 37.3505L12.7337 22.9197L20.9395 44L27.1646 37.3505Z" fill="url(#paint0_linear_36_299)"/>
<path d="M5.80087 0L22.7783 16.2701L6.22531 12.1672L5.80087 0Z" fill="url(#paint1_linear_36_299)"/>
<path d="M22.6377 16.1287L30.5605 21.3634L19.9496 30.1351L12.7342 22.9196L22.6377 16.1287Z" fill="url(#paint2_linear_36_299)"/>
<path d="M29.2875 20.5143L35.0881 15.5625L22.638 16.1284L29.2875 20.5143Z" fill="url(#paint3_linear_36_299)"/>
<path d="M22.6374 16.1288L27.8721 10.894L38.483 15.4214L22.6374 16.1288Z" fill="#35BDF6"/>
<path d="M-3.8147e-06 8.91309L22.6366 16.1285L12.7331 22.9195L-3.8147e-06 8.91309Z" fill="url(#paint4_linear_36_299)"/>
<path d="M11.0354 36.9261L12.7332 22.9197L14.0065 38.4823L11.0354 36.9261Z" fill="url(#paint5_linear_36_299)"/>
<path d="M14.168 40.8871L12.7444 22.9165L18.9595 38.7652L14.168 40.8871Z" fill="url(#paint6_linear_36_299)"/>
<path d="M35.7949 14.2891L38.483 15.4209L35.0875 15.5624L35.7949 14.2891Z" fill="#FFE600"/>
<path d="M48.8694 16.8398L45.5695 27.1472L42.3084 16.8398H39.3773L43.8225 30.4277H47.3165L51.8006 16.8398H48.8694Z" fill="#1A1C1E"/>
<path d="M54.5883 14.821C53.6178 14.821 52.8607 15.5004 52.8607 16.4516C52.8607 17.4027 53.6178 18.1016 54.5883 18.1016C55.5977 18.1016 56.316 17.4027 56.316 16.4516C56.316 15.5004 55.5977 14.821 54.5883 14.821ZM53.1907 30.4277H55.9666V19.7515H53.1907V30.4277Z" fill="#1A1C1E"/>
<path d="M58.2146 30.4277H60.9904V15.481H58.2146V30.4277Z" fill="#1A1C1E"/>
<path d="M69.2948 19.5186C67.8196 19.5186 66.752 20.1203 65.9755 21.2074V19.7515H63.1997V30.4277H65.9755V24.8179C65.9755 23.0708 66.8102 22.1585 68.3825 22.1585C69.8578 22.1585 70.3819 22.935 70.3819 24.3326V30.4277H73.1577V23.7308C73.1577 21.1103 71.7018 19.5186 69.2948 19.5186Z" fill="#1A1C1E"/>
<path d="M83.2529 19.7515V21.2462C82.5153 20.2174 81.3894 19.5186 79.8754 19.5186C77.1384 19.5186 75.0225 21.7897 75.0225 25.0896C75.0225 28.3701 77.0995 30.6607 79.8948 30.6607C81.3894 30.6607 82.4959 30.0007 83.2335 28.9913V30.4277H86.0093L86.0287 19.7515H83.2529ZM80.5159 28.0207C78.9824 28.0207 77.8178 26.8561 77.8178 25.0896C77.8178 23.3426 78.963 22.1585 80.5159 22.1585C82.0688 22.1585 83.2529 23.3426 83.2529 25.0896C83.2529 26.8561 82.0688 28.0207 80.5159 28.0207Z" fill="#1A1C1E"/>
<path d="M95.0544 30.6801C98.3931 30.6801 100.936 28.5837 101.674 25.6331H98.1408C97.5973 26.8172 96.4908 27.5354 95.0544 27.5354C92.8027 27.5354 91.3468 25.9049 91.3468 23.6338C91.3468 21.3627 92.8027 19.7321 95.0544 19.7321C96.4908 19.7321 97.5973 20.4503 98.1408 21.6344H101.674C100.936 18.6839 98.3931 16.5875 95.0544 16.5875C90.978 16.5875 88.0081 19.635 88.0081 23.6338C88.0081 27.6325 90.978 30.6801 95.0544 30.6801Z" fill="#1A1C1E"/>
<path d="M111.247 30.4277H115.284L111.713 25.4002C113.382 24.8567 114.43 23.5561 114.43 21.3821C114.43 18.548 112.645 16.8398 109.772 16.8398H103.715V30.4277H107.015V25.7108H108.044L111.247 30.4277ZM111.092 21.4209C111.092 22.3526 110.548 22.8185 109.403 22.8185H107.015V19.9845H109.403C110.509 19.9845 111.092 20.4697 111.092 21.4209Z" fill="#1A1C1E"/>
<path d="M126.997 16.8398L123.892 21.4985L120.786 16.8398H117.039V30.4277H120.339V21.4597L123.736 26.6425H124.047L127.444 21.4597V30.4277H130.744V16.8398H126.997Z" fill="#1A1C1E"/>
<defs>
<linearGradient id="paint0_linear_36_299" x1="19.9491" y1="22.9197" x2="19.9491" y2="44" gradientUnits="userSpaceOnUse">
<stop stop-color="#FFEC02"/>
<stop offset="1" stop-color="#FFDC0F"/>
</linearGradient>
<linearGradient id="paint1_linear_36_299" x1="14.2896" y1="1.97987e-07" x2="20.6561" y2="15.4212" gradientUnits="userSpaceOnUse">
<stop stop-color="#30B7F3"/>
<stop offset="1" stop-color="#45D0FF"/>
</linearGradient>
<linearGradient id="paint2_linear_36_299" x1="23.4866" y1="12.8747" x2="16.9786" y2="35.9357" gradientUnits="userSpaceOnUse">
<stop offset="0.132906" stop-color="#45D0FF"/>
<stop offset="0.901042" stop-color="#2CB3EC"/>
</linearGradient>
<linearGradient id="paint3_linear_36_299" x1="29.5341" y1="15.6613" x2="28.6392" y2="19.6885" gradientUnits="userSpaceOnUse">
<stop offset="0.0732198" stop-color="#30B8F4"/>
<stop offset="0.89363" stop-color="#40CAFD"/>
</linearGradient>
<linearGradient id="paint4_linear_36_299" x1="-3.72843e-06" y1="10.3279" x2="18.6752" y2="28.8616" gradientUnits="userSpaceOnUse">
<stop stop-color="#FFED00"/>
<stop offset="0.728061" stop-color="#FFD910"/>
</linearGradient>
<linearGradient id="paint5_linear_36_299" x1="12.5209" y1="22.9197" x2="12.5209" y2="38.4823" gradientUnits="userSpaceOnUse">
<stop stop-color="#FFEC02"/>
<stop offset="1" stop-color="#FFDC0F"/>
</linearGradient>
<linearGradient id="paint6_linear_36_299" x1="10.5893" y1="23.7157" x2="16.62" y2="39.9778" gradientUnits="userSpaceOnUse">
<stop stop-color="#38C1F8"/>
<stop offset="0.989583" stop-color="#44CFFF"/>
</linearGradient>
</defs>
</svg>
