<svg width="20" height="20" viewBox="0 0 20 20" fill="none" xmlns="http://www.w3.org/2000/svg">
    <path fill-rule="evenodd" clip-rule="evenodd" d="M7.8575 7.47413H10.9525V9.01579C11.3983 8.12913 12.5417 7.33246 14.2592 7.33246C17.5517 7.33246 18.3333 9.09746 18.3333 12.3358V18.3333H15V13.0733C15 11.2291 14.5542 10.1891 13.4192 10.1891C11.845 10.1891 11.1908 11.31 11.1908 13.0725V18.3333H7.8575V7.47413ZM2.14167 18.1916H5.47501V7.33246H2.14167V18.1916ZM5.95251 3.79163C5.95263 4.07102 5.89722 4.34766 5.78949 4.60545C5.68177 4.86324 5.52388 5.09705 5.325 5.29329C4.92201 5.69381 4.37651 5.918 3.80834 5.91663C3.24116 5.91624 2.69693 5.69263 2.29334 5.29413C2.09518 5.09722 1.93783 4.86315 1.83029 4.60532C1.72276 4.34749 1.66715 4.07098 1.66667 3.79163C1.66667 3.22746 1.89167 2.68746 2.29417 2.28913C2.69741 1.89009 3.24187 1.66638 3.80917 1.66663C4.37751 1.66663 4.9225 1.89079 5.325 2.28913C5.72667 2.68746 5.95251 3.22746 5.95251 3.79163Z" fill="#1B2327"/>
</svg>
