<svg xmlns="http://www.w3.org/2000/svg" width="1024" height="607" viewBox="0 0 1024 607" fill="none">
    <path fill-rule="evenodd" clip-rule="evenodd" d="M1057.3 127.162C1042.85 159.108 1025.32 216.379 1011.15 312.413C989.087 462.002 853.127 570.029 706.248 599.039C631.625 613.777 551.094 608.945 477.881 577.023C404.071 544.84 341.996 486.977 301.739 402.654C200.451 190.493 -10.6604 222.084 -91 219.532L-86.7262 110.364C31.053 114.105 289.861 101.273 413.141 359.499C443.062 422.171 485.739 459.089 530.716 478.7C576.29 498.572 628.581 502.548 680.277 492.338C786.037 471.449 876.704 394.552 890.943 298.024C905.821 197.165 925.158 129.804 944.993 85.9475C954.863 64.1261 965.729 46.1534 977.857 32.4709C987.689 21.3797 1007.59 2.54523 1037.86 0L1049.13 108.763C1062.52 107.637 1070.33 102.438 1072.97 100.238C1072.87 100.357 1072.75 100.487 1072.62 100.63C1070.2 103.362 1064.57 111.083 1057.3 127.162ZM1074 99.2558C1074 99.2973 1073.66 99.6663 1072.97 100.238C1073.65 99.5003 1074 99.2143 1074 99.2558Z" fill="url(#paint0_linear_19_1386)" fill-opacity="0.42"/>
    <path fill-rule="evenodd" clip-rule="evenodd" d="M1057.3 127.162C1042.85 159.108 1025.32 216.379 1011.15 312.413C989.087 462.002 853.127 570.029 706.248 599.039C631.625 613.777 551.094 608.945 477.881 577.023C404.071 544.84 341.996 486.977 301.739 402.654C200.451 190.493 -10.6604 222.084 -91 219.532L-86.7262 110.364C31.053 114.105 289.861 101.273 413.141 359.499C443.062 422.171 485.739 459.089 530.716 478.7C576.29 498.572 628.581 502.548 680.277 492.338C786.037 471.449 876.704 394.552 890.943 298.024C905.821 197.165 925.158 129.804 944.993 85.9475C954.863 64.1261 965.729 46.1534 977.857 32.4709C987.689 21.3797 1007.59 2.54523 1037.86 0L1049.13 108.763C1062.52 107.637 1070.33 102.438 1072.97 100.238C1072.87 100.357 1072.75 100.487 1072.62 100.63C1070.2 103.362 1064.57 111.083 1057.3 127.162ZM1074 99.2558C1074 99.2973 1073.66 99.6663 1072.97 100.238C1073.65 99.5003 1074 99.2143 1074 99.2558Z" fill="url(#paint1_linear_19_1386)" fill-opacity="0.42"/>
    <defs>
        <linearGradient id="paint0_linear_19_1386" x1="999.459" y1="127.807" x2="495.981" y2="607.101" gradientUnits="userSpaceOnUse">
            <stop stop-color="#34B9F0"/>
            <stop offset="1" stop-color="white" stop-opacity="0"/>
        </linearGradient>
        <linearGradient id="paint1_linear_19_1386" x1="-26.5776" y1="123.761" x2="495.788" y2="607.105" gradientUnits="userSpaceOnUse">
            <stop stop-color="#FFE092"/>
            <stop offset="1" stop-color="white" stop-opacity="0"/>
        </linearGradient>
    </defs>
</svg>
