<svg width="1440" height="900" viewBox="0 0 1440 900" fill="none" xmlns="http://www.w3.org/2000/svg">
    <path fill-rule="evenodd" clip-rule="evenodd"
          d="M1503.24 188.544C1481.82 235.909 1455.84 320.825 1434.84 463.215C1402.12 685.011 1200.58 845.183 982.844 888.196C872.222 910.048 752.842 902.885 644.311 855.553C534.894 807.835 442.875 722.042 383.198 597.016C233.048 282.444 -79.9043 329.284 -199 325.5L-192.665 163.637C-18.0682 169.184 365.59 150.158 548.341 533.03C592.695 625.954 655.96 680.693 722.633 709.77C790.193 739.233 867.709 745.129 944.343 729.99C1101.12 699.019 1235.53 585.003 1256.64 441.881C1278.69 292.336 1307.36 192.46 1336.76 127.434C1351.39 95.0798 1367.5 68.4317 1385.48 48.1447C1400.05 31.6997 1429.55 3.77382 1474.43 0L1491.13 161.263C1510.98 159.594 1522.56 151.885 1526.48 148.624C1526.32 148.8 1526.14 148.993 1525.96 149.204C1522.37 153.255 1514.02 164.703 1503.24 188.544ZM1528 147.167C1528 147.228 1527.5 147.775 1526.48 148.624C1527.49 147.529 1528 147.105 1528 147.167Z"
          fill="url(#paint0_linear_19_989)" fill-opacity="0.42"/>
    <path fill-rule="evenodd" clip-rule="evenodd"
          d="M1503.24 188.544C1481.82 235.909 1455.84 320.825 1434.84 463.215C1402.12 685.011 1200.58 845.183 982.844 888.196C872.222 910.048 752.842 902.885 644.311 855.553C534.894 807.835 442.875 722.042 383.198 597.016C233.048 282.444 -79.9043 329.284 -199 325.5L-192.665 163.637C-18.0682 169.184 365.59 150.158 548.341 533.03C592.695 625.954 655.96 680.693 722.633 709.77C790.193 739.233 867.709 745.129 944.343 729.99C1101.12 699.019 1235.53 585.003 1256.64 441.881C1278.69 292.336 1307.36 192.46 1336.76 127.434C1351.39 95.0798 1367.5 68.4317 1385.48 48.1447C1400.05 31.6997 1429.55 3.77382 1474.43 0L1491.13 161.263C1510.98 159.594 1522.56 151.885 1526.48 148.624C1526.32 148.8 1526.14 148.993 1525.96 149.204C1522.37 153.255 1514.02 164.703 1503.24 188.544ZM1528 147.167C1528 147.228 1527.5 147.775 1526.48 148.624C1527.49 147.529 1528 147.105 1528 147.167Z"
          fill="url(#paint1_linear_19_989)" fill-opacity="0.42"/>
    <defs>
        <linearGradient id="paint0_linear_19_989" x1="1417.5" y1="189.5" x2="671" y2="900"
                        gradientUnits="userSpaceOnUse">
            <stop stop-color="#34B9F0"/>
            <stop offset="1" stop-color="white" stop-opacity="0"/>
        </linearGradient>
        <linearGradient id="paint1_linear_19_989" x1="-103.5" y1="183.5" x2="671" y2="900"
                        gradientUnits="userSpaceOnUse">
            <stop stop-color="#FFE092"/>
            <stop offset="1" stop-color="white" stop-opacity="0"/>
        </linearGradient>
    </defs>
</svg>
