<svg width="784" height="658" viewBox="0 0 784 658" fill="none" xmlns="http://www.w3.org/2000/svg">
    <g clip-path="url(#clip0_0_53)">
        <path d="M768.534 255.226C768.534 252.126 766.048 249.634 762.955 249.634C759.862 249.634 757.375 252.126 757.375 255.226C757.375 258.325 759.862 260.817 762.955 260.817C766.048 260.817 768.534 258.325 768.534 255.226Z" fill="#E1E7EA"/>
        <path d="M744.336 268.293C741.242 268.293 738.756 270.784 738.756 273.884C738.756 276.984 741.242 279.476 744.336 279.476C747.429 279.476 749.915 276.984 749.915 273.884C749.915 270.784 747.429 268.293 744.336 268.293Z" fill="#E1E7EA"/>
        <path d="M775.994 311.201C775.994 314.301 778.481 316.793 781.574 316.793C782.484 316.793 783.272 316.549 784 316.185C783.939 312.721 783.818 309.317 783.515 305.974C782.908 305.731 782.241 305.61 781.513 305.61C778.481 305.549 775.994 308.102 775.994 311.201Z" fill="#E1E7EA"/>
        <path d="M768.534 329.799C768.534 326.699 766.048 324.207 762.955 324.207C759.862 324.207 757.375 326.699 757.375 329.799C757.375 332.898 759.862 335.39 762.955 335.39C766.048 335.451 768.534 332.898 768.534 329.799Z" fill="#E1E7EA"/>
        <path d="M762.955 286.951C759.862 286.951 757.375 289.443 757.375 292.543C757.375 295.642 759.862 298.134 762.955 298.134C766.048 298.134 768.534 295.642 768.534 292.543C768.534 289.443 766.048 286.951 762.955 286.951Z" fill="#E1E7EA"/>
        <path d="M744.336 305.549C741.242 305.549 738.756 308.041 738.756 311.14C738.756 314.24 741.242 316.732 744.336 316.732C747.429 316.732 749.915 314.24 749.915 311.14C749.915 308.102 747.429 305.549 744.336 305.549Z" fill="#E1E7EA"/>
        <path d="M778.905 278.746C778.238 276.194 777.45 273.702 776.661 271.271C776.237 272.061 775.994 272.912 775.994 273.884C775.994 275.951 777.147 277.774 778.905 278.746Z" fill="#E1E7EA"/>
        <path d="M757.618 402.853C758.224 401.941 758.831 401.029 759.498 400.118C758.588 400.786 757.982 401.759 757.618 402.853Z" fill="#E1E7EA"/>
        <path d="M757.375 367.116C757.375 370.216 759.862 372.707 762.955 372.707C766.048 372.707 768.534 370.216 768.534 367.116C768.534 364.016 766.048 361.524 762.955 361.524C759.862 361.524 757.375 364.077 757.375 367.116Z" fill="#E1E7EA"/>
        <path d="M781.938 342.927C781.817 342.927 781.695 342.866 781.574 342.866C778.481 342.866 775.994 345.358 775.994 348.457C775.994 350.888 777.571 352.955 779.694 353.684C780.604 350.159 781.331 346.573 781.938 342.927Z" fill="#E1E7EA"/>
        <path d="M707.097 193.659C704.004 193.659 701.517 196.15 701.517 199.25C701.517 202.35 704.004 204.841 707.097 204.841C710.19 204.841 712.677 202.35 712.677 199.25C712.677 196.15 710.19 193.659 707.097 193.659Z" fill="#E1E7EA"/>
        <path d="M682.898 180.591C682.898 183.691 685.385 186.183 688.478 186.183C691.571 186.183 694.057 183.691 694.057 180.591C694.057 180.531 694.057 180.409 694.057 180.348C690.964 179.011 687.811 177.735 684.596 176.58C683.565 177.613 682.898 179.011 682.898 180.591Z" fill="#E1E7EA"/>
        <path d="M669.858 193.659C666.765 193.659 664.279 196.15 664.279 199.25C664.279 202.35 666.765 204.841 669.858 204.841C672.952 204.841 675.438 202.35 675.438 199.25C675.438 196.15 672.952 193.659 669.858 193.659Z" fill="#E1E7EA"/>
        <path d="M707.097 268.293C704.004 268.293 701.517 270.784 701.517 273.884C701.517 276.984 704.004 279.476 707.097 279.476C710.19 279.476 712.677 276.984 712.677 273.884C712.677 270.784 710.19 268.293 707.097 268.293Z" fill="#E1E7EA"/>
        <path d="M744.336 242.159C747.417 242.159 749.915 239.655 749.915 236.567C749.915 233.479 747.417 230.976 744.336 230.976C741.254 230.976 738.756 233.479 738.756 236.567C738.756 239.655 741.254 242.159 744.336 242.159Z" fill="#E1E7EA"/>
        <path d="M707.097 242.159C710.19 242.159 712.677 239.667 712.677 236.567C712.677 233.467 710.19 230.976 707.097 230.976C704.004 230.976 701.517 233.467 701.517 236.567C701.517 239.667 704.004 242.159 707.097 242.159Z" fill="#E1E7EA"/>
        <path d="M688.478 260.817C691.571 260.817 694.057 258.325 694.057 255.226C694.057 252.126 691.571 249.634 688.478 249.634C685.385 249.634 682.898 252.126 682.898 255.226C682.898 258.325 685.385 260.817 688.478 260.817Z" fill="#E1E7EA"/>
        <path d="M731.296 255.226C731.296 252.126 728.809 249.634 725.716 249.634C722.623 249.634 720.137 252.126 720.137 255.226C720.137 258.325 722.623 260.817 725.716 260.817C728.809 260.817 731.296 258.325 731.296 255.226Z" fill="#E1E7EA"/>
        <path d="M688.478 223.5C691.571 223.5 694.057 221.008 694.057 217.909C694.057 214.809 691.571 212.317 688.478 212.317C685.385 212.317 682.898 214.809 682.898 217.909C682.898 221.008 685.385 223.5 688.478 223.5Z" fill="#E1E7EA"/>
        <path d="M720.137 217.909C720.137 221.008 722.623 223.5 725.716 223.5C728.809 223.5 731.296 221.008 731.296 217.909C731.296 214.809 728.809 212.317 725.716 212.317C722.623 212.317 720.137 214.809 720.137 217.909Z" fill="#E1E7EA"/>
        <path d="M669.858 268.293C666.765 268.293 664.279 270.784 664.279 273.884C664.279 276.984 666.765 279.476 669.858 279.476C672.952 279.476 675.438 276.984 675.438 273.884C675.438 270.784 672.952 268.293 669.858 268.293Z" fill="#E1E7EA"/>
        <path d="M707.097 342.866C704.004 342.866 701.517 345.358 701.517 348.457C701.517 351.557 704.004 354.049 707.097 354.049C710.19 354.049 712.677 351.557 712.677 348.457C712.677 345.419 710.19 342.866 707.097 342.866Z" fill="#E1E7EA"/>
        <path d="M707.097 305.549C704.004 305.549 701.517 308.041 701.517 311.14C701.517 314.24 704.004 316.732 707.097 316.732C710.19 316.732 712.677 314.24 712.677 311.14C712.677 308.102 710.19 305.549 707.097 305.549Z" fill="#E1E7EA"/>
        <path d="M694.057 329.799C694.057 326.699 691.571 324.207 688.478 324.207C685.385 324.207 682.898 326.699 682.898 329.799C682.898 332.898 685.385 335.39 688.478 335.39C691.571 335.451 694.057 332.898 694.057 329.799Z" fill="#E1E7EA"/>
        <path d="M725.716 324.207C722.623 324.207 720.137 326.699 720.137 329.799C720.137 332.898 722.623 335.39 725.716 335.39C728.809 335.39 731.296 332.898 731.296 329.799C731.296 326.76 728.809 324.207 725.716 324.207Z" fill="#E1E7EA"/>
        <path d="M688.478 286.951C685.385 286.951 682.898 289.443 682.898 292.543C682.898 295.642 685.385 298.134 688.478 298.134C691.571 298.134 694.057 295.642 694.057 292.543C694.057 289.443 691.571 286.951 688.478 286.951Z" fill="#E1E7EA"/>
        <path d="M725.716 286.951C722.623 286.951 720.137 289.443 720.137 292.543C720.137 295.642 722.623 298.134 725.716 298.134C728.809 298.134 731.296 295.642 731.296 292.543C731.296 289.443 728.809 286.951 725.716 286.951Z" fill="#E1E7EA"/>
        <path d="M669.858 342.866C666.765 342.866 664.279 345.358 664.279 348.457C664.279 351.557 666.765 354.049 669.858 354.049C672.952 354.049 675.438 351.557 675.438 348.457C675.438 345.419 672.952 342.866 669.858 342.866Z" fill="#E1E7EA"/>
        <path d="M744.336 391.366C747.429 391.366 749.915 388.874 749.915 385.774C749.915 382.675 747.429 380.183 744.336 380.183C741.242 380.183 738.756 382.675 738.756 385.774C738.756 388.874 741.242 391.366 744.336 391.366Z" fill="#E1E7EA"/>
        <path d="M707.097 391.366C710.19 391.366 712.677 388.874 712.677 385.774C712.677 382.675 710.19 380.183 707.097 380.183C704.004 380.183 701.517 382.675 701.517 385.774C701.517 388.874 704.004 391.366 707.097 391.366Z" fill="#E1E7EA"/>
        <path d="M688.478 398.841C685.385 398.841 682.898 401.333 682.898 404.433C682.898 407.533 685.385 410.024 688.478 410.024C691.571 410.024 694.057 407.533 694.057 404.433C694.057 401.333 691.571 398.841 688.478 398.841Z" fill="#E1E7EA"/>
        <path d="M731.296 404.433C731.296 401.333 728.809 398.841 725.716 398.841C722.623 398.841 720.137 401.333 720.137 404.433C720.137 407.533 722.623 410.024 725.716 410.024C728.809 410.024 731.296 407.533 731.296 404.433Z" fill="#E1E7EA"/>
        <path d="M688.478 361.524C685.385 361.524 682.898 364.016 682.898 367.116C682.898 370.216 685.385 372.707 688.478 372.707C691.571 372.707 694.057 370.216 694.057 367.116C694.057 364.077 691.571 361.524 688.478 361.524Z" fill="#E1E7EA"/>
        <path d="M725.716 361.524C722.623 361.524 720.137 364.016 720.137 367.116C720.137 370.216 722.623 372.707 725.716 372.707C728.809 372.707 731.296 370.216 731.296 367.116C731.296 364.077 728.809 361.524 725.716 361.524Z" fill="#E1E7EA"/>
        <path d="M669.858 380.183C666.765 380.183 664.279 382.675 664.279 385.774C664.279 388.874 666.765 391.366 669.858 391.366C672.952 391.366 675.438 388.874 675.438 385.774C675.438 382.675 672.952 380.183 669.858 380.183Z" fill="#E1E7EA"/>
        <path d="M744.336 354.11C747.429 354.11 749.915 351.618 749.915 348.518C749.915 345.419 747.429 342.927 744.336 342.927C741.242 342.927 738.756 345.419 738.756 348.518C738.756 351.557 741.242 354.11 744.336 354.11Z" fill="#E1E7EA"/>
        <path d="M682.898 441.75C682.898 444.85 685.385 447.341 688.478 447.341C691.571 447.341 694.057 444.85 694.057 441.75C694.057 438.65 691.571 436.159 688.478 436.159C685.385 436.159 682.898 438.65 682.898 441.75Z" fill="#E1E7EA"/>
        <path d="M720.258 440.534C722.259 439.137 724.2 437.678 726.141 436.219C726.019 436.219 725.838 436.159 725.716 436.159C723.048 436.159 720.864 438.043 720.258 440.534Z" fill="#E1E7EA"/>
        <path d="M669.858 454.817C666.765 454.817 664.279 457.309 664.279 460.409C664.279 461.928 664.885 463.326 665.916 464.359C669.07 463.69 672.163 462.9 675.196 462.049C675.377 461.563 675.438 461.016 675.438 460.469C675.438 457.309 672.952 454.817 669.858 454.817Z" fill="#E1E7EA"/>
        <path d="M745.912 417.743C745.427 417.622 744.881 417.5 744.336 417.5C741.242 417.5 738.756 419.992 738.756 423.091C738.756 423.699 738.877 424.307 739.059 424.915C741.424 422.605 743.729 420.235 745.912 417.743Z" fill="#E1E7EA"/>
        <path d="M707.097 428.683C710.19 428.683 712.677 426.191 712.677 423.091C712.677 419.992 710.19 417.5 707.097 417.5C704.004 417.5 701.517 419.992 701.517 423.091C701.517 426.191 704.004 428.683 707.097 428.683Z" fill="#E1E7EA"/>
        <path d="M632.62 193.659C629.527 193.659 627.04 196.15 627.04 199.25C627.04 202.35 629.527 204.841 632.62 204.841C635.713 204.841 638.2 202.35 638.2 199.25C638.2 196.15 635.713 193.659 632.62 193.659Z" fill="#E1E7EA"/>
        <path d="M619.641 180.591C619.641 177.492 617.094 175 614.061 175C610.968 175 608.482 177.492 608.482 180.591C608.482 183.691 610.968 186.183 614.061 186.183C617.094 186.183 619.641 183.691 619.641 180.591Z" fill="#E1E7EA"/>
        <path d="M656.819 180.591C656.819 177.492 654.332 175 651.239 175C648.146 175 645.659 177.492 645.659 180.591C645.659 183.691 648.146 186.183 651.239 186.183C654.332 186.183 656.819 183.691 656.819 180.591Z" fill="#E1E7EA"/>
        <path d="M669.858 242.159C672.952 242.159 675.438 239.667 675.438 236.567C675.438 233.467 672.952 230.976 669.858 230.976C666.765 230.976 664.279 233.467 664.279 236.567C664.279 239.667 666.765 242.159 669.858 242.159Z" fill="#E1E7EA"/>
        <path d="M632.62 242.159C635.713 242.159 638.2 239.667 638.2 236.567C638.2 233.467 635.713 230.976 632.62 230.976C629.527 230.976 627.04 233.467 627.04 236.567C627.04 239.667 629.587 242.159 632.62 242.159Z" fill="#E1E7EA"/>
        <path d="M614.061 260.817C617.154 260.817 619.641 258.325 619.641 255.226C619.641 252.126 617.154 249.634 614.061 249.634C610.968 249.634 608.482 252.126 608.482 255.226C608.421 258.325 610.968 260.817 614.061 260.817Z" fill="#E1E7EA"/>
        <path d="M651.239 260.817C654.332 260.817 656.819 258.325 656.819 255.226C656.819 252.126 654.332 249.634 651.239 249.634C648.146 249.634 645.659 252.126 645.659 255.226C645.659 258.325 648.207 260.817 651.239 260.817Z" fill="#E1E7EA"/>
        <path d="M614.061 223.5C617.154 223.5 619.641 221.008 619.641 217.909C619.641 214.809 617.154 212.317 614.061 212.317C610.968 212.317 608.482 214.809 608.482 217.909C608.421 221.008 610.968 223.5 614.061 223.5Z" fill="#E1E7EA"/>
        <path d="M651.239 223.5C654.332 223.5 656.819 221.008 656.819 217.909C656.819 214.809 654.332 212.317 651.239 212.317C648.146 212.317 645.659 214.809 645.659 217.909C645.659 221.008 648.207 223.5 651.239 223.5Z" fill="#E1E7EA"/>
        <path d="M632.62 342.866C629.527 342.866 627.04 345.358 627.04 348.457C627.04 351.557 629.527 354.049 632.62 354.049C635.713 354.049 638.2 351.557 638.2 348.457C638.2 345.419 635.713 342.866 632.62 342.866Z" fill="#E1E7EA"/>
        <path d="M669.858 316.793C672.952 316.793 675.438 314.301 675.438 311.201C675.438 308.102 672.952 305.61 669.858 305.61C666.765 305.61 664.279 308.102 664.279 311.201C664.279 314.301 666.765 316.793 669.858 316.793Z" fill="#E1E7EA"/>
        <path d="M632.62 305.549C629.527 305.549 627.04 308.041 627.04 311.14C627.04 314.24 629.527 316.732 632.62 316.732C635.713 316.732 638.2 314.24 638.2 311.14C638.2 308.102 635.713 305.549 632.62 305.549Z" fill="#E1E7EA"/>
        <path d="M614.061 324.207C610.968 324.207 608.482 326.699 608.482 329.799C608.482 332.898 610.968 335.39 614.061 335.39C617.154 335.39 619.641 332.898 619.641 329.799C619.641 326.76 617.094 324.207 614.061 324.207Z" fill="#E1E7EA"/>
        <path d="M651.239 324.207C648.146 324.207 645.659 326.699 645.659 329.799C645.659 332.898 648.146 335.39 651.239 335.39C654.332 335.39 656.819 332.898 656.819 329.799C656.819 326.76 654.332 324.207 651.239 324.207Z" fill="#E1E7EA"/>
        <path d="M614.061 286.951C610.968 286.951 608.482 289.443 608.482 292.543C608.482 295.642 610.968 298.134 614.061 298.134C617.154 298.134 619.641 295.642 619.641 292.543C619.641 289.443 617.094 286.951 614.061 286.951Z" fill="#E1E7EA"/>
        <path d="M651.239 286.951C648.146 286.951 645.659 289.443 645.659 292.543C645.659 295.642 648.146 298.134 651.239 298.134C654.332 298.134 656.819 295.642 656.819 292.543C656.819 289.443 654.332 286.951 651.239 286.951Z" fill="#E1E7EA"/>
        <path d="M595.442 342.866C592.349 342.866 589.862 345.358 589.862 348.457C589.862 351.557 592.349 354.049 595.442 354.049C598.535 354.049 601.022 351.557 601.022 348.457C601.022 345.419 598.474 342.866 595.442 342.866Z" fill="#E1E7EA"/>
        <path d="M595.442 305.549C592.349 305.549 589.862 308.041 589.862 311.14C589.862 314.24 592.349 316.732 595.442 316.732C598.535 316.732 601.022 314.24 601.022 311.14C601.022 308.102 598.474 305.549 595.442 305.549Z" fill="#E1E7EA"/>
        <path d="M632.62 279.476C635.713 279.476 638.2 276.984 638.2 273.884C638.2 270.784 635.713 268.293 632.62 268.293C629.527 268.293 627.04 270.784 627.04 273.884C627.04 276.923 629.587 279.476 632.62 279.476Z" fill="#E1E7EA"/>
        <path d="M632.62 417.5C629.527 417.5 627.04 419.992 627.04 423.091C627.04 426.191 629.527 428.683 632.62 428.683C635.713 428.683 638.2 426.191 638.2 423.091C638.2 419.992 635.713 417.5 632.62 417.5Z" fill="#E1E7EA"/>
        <path d="M632.62 380.183C629.527 380.183 627.04 382.675 627.04 385.774C627.04 388.874 629.527 391.366 632.62 391.366C635.713 391.366 638.2 388.874 638.2 385.774C638.2 382.675 635.713 380.183 632.62 380.183Z" fill="#E1E7EA"/>
        <path d="M614.061 398.841C610.968 398.841 608.482 401.333 608.482 404.433C608.482 407.533 610.968 410.024 614.061 410.024C617.154 410.024 619.641 407.533 619.641 404.433C619.641 401.333 617.094 398.841 614.061 398.841Z" fill="#E1E7EA"/>
        <path d="M651.239 398.841C648.146 398.841 645.659 401.333 645.659 404.433C645.659 407.533 648.146 410.024 651.239 410.024C654.332 410.024 656.819 407.533 656.819 404.433C656.819 401.333 654.332 398.841 651.239 398.841Z" fill="#E1E7EA"/>
        <path d="M614.061 361.524C610.968 361.524 608.482 364.016 608.482 367.116C608.482 370.216 610.968 372.707 614.061 372.707C617.154 372.707 619.641 370.216 619.641 367.116C619.641 364.077 617.094 361.524 614.061 361.524Z" fill="#E1E7EA"/>
        <path d="M651.239 361.524C648.146 361.524 645.659 364.016 645.659 367.116C645.659 370.216 648.146 372.707 651.239 372.707C654.332 372.707 656.819 370.216 656.819 367.116C656.819 364.077 654.332 361.524 651.239 361.524Z" fill="#E1E7EA"/>
        <path d="M595.442 380.183C592.349 380.183 589.862 382.675 589.862 385.774C589.862 388.874 592.349 391.366 595.442 391.366C598.535 391.366 601.022 388.874 601.022 385.774C601.022 382.675 598.474 380.183 595.442 380.183Z" fill="#E1E7EA"/>
        <path d="M632.62 454.817C629.527 454.817 627.04 457.309 627.04 460.409C627.04 463.508 629.527 466 632.62 466C635.713 466 638.2 463.508 638.2 460.409C638.2 457.309 635.713 454.817 632.62 454.817Z" fill="#E1E7EA"/>
        <path d="M608.421 441.75C608.421 444.85 610.908 447.341 614.001 447.341C617.094 447.341 619.58 444.85 619.58 441.75C619.58 438.65 617.094 436.159 614.001 436.159C610.968 436.159 608.421 438.65 608.421 441.75Z" fill="#E1E7EA"/>
        <path d="M645.659 441.75C645.659 444.85 648.146 447.341 651.239 447.341C654.332 447.341 656.819 444.85 656.819 441.75C656.819 438.65 654.332 436.159 651.239 436.159C648.207 436.159 645.659 438.65 645.659 441.75Z" fill="#E1E7EA"/>
        <path d="M595.442 454.817C592.349 454.817 589.862 457.309 589.862 460.409C589.862 460.591 589.923 460.712 589.923 460.895C593.259 461.928 596.594 462.84 600.051 463.63C600.658 462.718 601.082 461.624 601.082 460.409C601.022 457.309 598.474 454.817 595.442 454.817Z" fill="#E1E7EA"/>
        <path d="M669.858 428.683C672.952 428.683 675.438 426.191 675.438 423.091C675.438 419.992 672.952 417.5 669.858 417.5C666.765 417.5 664.279 419.992 664.279 423.091C664.279 426.191 666.765 428.683 669.858 428.683Z" fill="#E1E7EA"/>
        <path d="M558.203 193.659C555.11 193.659 552.624 196.15 552.624 199.25C552.624 202.35 555.11 204.841 558.203 204.841C561.297 204.841 563.783 202.35 563.783 199.25C563.783 196.15 561.297 193.659 558.203 193.659Z" fill="#E1E7EA"/>
        <path d="M576.823 186.183C579.916 186.183 582.402 183.691 582.402 180.591C582.402 179.497 582.099 178.525 581.553 177.674C578.096 179.011 574.7 180.409 571.425 181.989C572.031 184.36 574.215 186.183 576.823 186.183Z" fill="#E1E7EA"/>
        <path d="M595.442 242.159C598.535 242.159 601.022 239.667 601.022 236.567C601.022 233.467 598.535 230.976 595.442 230.976C592.349 230.976 589.862 233.467 589.862 236.567C589.862 239.667 592.349 242.159 595.442 242.159Z" fill="#E1E7EA"/>
        <path d="M558.203 242.159C561.285 242.159 563.783 239.655 563.783 236.567C563.783 233.479 561.285 230.976 558.203 230.976C555.122 230.976 552.624 233.479 552.624 236.567C552.624 239.655 555.122 242.159 558.203 242.159Z" fill="#E1E7EA"/>
        <path d="M545.164 255.226C545.164 252.126 542.677 249.634 539.584 249.634C536.491 249.634 534.004 252.126 534.004 255.226C534.004 258.325 536.491 260.817 539.584 260.817C542.677 260.817 545.164 258.325 545.164 255.226Z" fill="#E1E7EA"/>
        <path d="M576.823 260.817C579.916 260.817 582.402 258.325 582.402 255.226C582.402 252.126 579.916 249.634 576.823 249.634C573.73 249.634 571.243 252.126 571.243 255.226C571.243 258.325 573.73 260.817 576.823 260.817Z" fill="#E1E7EA"/>
        <path d="M534.004 217.909C534.004 221.008 536.491 223.5 539.584 223.5C542.677 223.5 545.164 221.008 545.164 217.909C545.164 214.809 542.677 212.317 539.584 212.317C536.491 212.317 534.004 214.809 534.004 217.909Z" fill="#E1E7EA"/>
        <path d="M576.823 223.5C579.916 223.5 582.402 221.008 582.402 217.909C582.402 214.809 579.916 212.317 576.823 212.317C573.73 212.317 571.243 214.809 571.243 217.909C571.243 221.008 573.73 223.5 576.823 223.5Z" fill="#E1E7EA"/>
        <path d="M595.442 204.841C598.535 204.841 601.022 202.35 601.022 199.25C601.022 196.15 598.535 193.659 595.442 193.659C592.349 193.659 589.862 196.15 589.862 199.25C589.862 202.35 592.349 204.841 595.442 204.841Z" fill="#E1E7EA"/>
        <path d="M558.203 342.866C555.11 342.866 552.624 345.358 552.624 348.457C552.624 351.557 555.11 354.049 558.203 354.049C561.297 354.049 563.783 351.557 563.783 348.457C563.783 345.419 561.297 342.866 558.203 342.866Z" fill="#E1E7EA"/>
        <path d="M558.203 305.549C555.11 305.549 552.624 308.041 552.624 311.14C552.624 314.24 555.11 316.732 558.203 316.732C561.297 316.732 563.783 314.24 563.783 311.14C563.783 308.102 561.297 305.549 558.203 305.549Z" fill="#E1E7EA"/>
        <path d="M539.584 324.207C536.491 324.207 534.004 326.699 534.004 329.799C534.004 332.898 536.491 335.39 539.584 335.39C542.677 335.39 545.164 332.898 545.164 329.799C545.164 326.76 542.677 324.207 539.584 324.207Z" fill="#E1E7EA"/>
        <path d="M576.823 324.207C573.73 324.207 571.243 326.699 571.243 329.799C571.243 332.898 573.73 335.39 576.823 335.39C579.916 335.39 582.402 332.898 582.402 329.799C582.402 326.76 579.855 324.207 576.823 324.207Z" fill="#E1E7EA"/>
        <path d="M539.584 286.951C536.491 286.951 534.004 289.443 534.004 292.543C534.004 295.642 536.491 298.134 539.584 298.134C542.677 298.134 545.164 295.642 545.164 292.543C545.164 289.443 542.677 286.951 539.584 286.951Z" fill="#E1E7EA"/>
        <path d="M576.823 286.951C573.73 286.951 571.243 289.443 571.243 292.543C571.243 295.642 573.73 298.134 576.823 298.134C579.916 298.134 582.402 295.642 582.402 292.543C582.402 289.443 579.855 286.951 576.823 286.951Z" fill="#E1E7EA"/>
        <path d="M520.965 342.866C517.872 342.866 515.385 345.358 515.385 348.457C515.385 351.557 517.872 354.049 520.965 354.049C524.058 354.049 526.545 351.557 526.545 348.457C526.545 345.419 524.058 342.866 520.965 342.866Z" fill="#E1E7EA"/>
        <path d="M520.965 305.549C517.872 305.549 515.385 308.041 515.385 311.14C515.385 314.24 517.872 316.732 520.965 316.732C524.058 316.732 526.545 314.24 526.545 311.14C526.545 308.102 524.058 305.549 520.965 305.549Z" fill="#E1E7EA"/>
        <path d="M595.442 279.476C598.535 279.476 601.022 276.984 601.022 273.884C601.022 270.784 598.535 268.293 595.442 268.293C592.349 268.293 589.862 270.784 589.862 273.884C589.862 276.923 592.349 279.476 595.442 279.476Z" fill="#E1E7EA"/>
        <path d="M558.203 279.476C561.297 279.476 563.783 276.984 563.783 273.884C563.783 270.784 561.297 268.293 558.203 268.293C555.11 268.293 552.624 270.784 552.624 273.884C552.624 276.923 555.11 279.476 558.203 279.476Z" fill="#E1E7EA"/>
        <path d="M558.203 380.183C555.11 380.183 552.624 382.675 552.624 385.774C552.624 388.874 555.11 391.366 558.203 391.366C561.297 391.366 563.783 388.874 563.783 385.774C563.783 382.675 561.297 380.183 558.203 380.183Z" fill="#E1E7EA"/>
        <path d="M539.584 398.841C536.491 398.841 534.004 401.333 534.004 404.433C534.004 407.533 536.491 410.024 539.584 410.024C542.677 410.024 545.164 407.533 545.164 404.433C545.164 401.333 542.677 398.841 539.584 398.841Z" fill="#E1E7EA"/>
        <path d="M576.823 398.841C573.73 398.841 571.243 401.333 571.243 404.433C571.243 407.533 573.73 410.024 576.823 410.024C579.916 410.024 582.402 407.533 582.402 404.433C582.402 401.333 579.855 398.841 576.823 398.841Z" fill="#E1E7EA"/>
        <path d="M539.584 361.524C536.491 361.524 534.004 364.016 534.004 367.116C534.004 370.216 536.491 372.707 539.584 372.707C542.677 372.707 545.164 370.216 545.164 367.116C545.164 364.077 542.677 361.524 539.584 361.524Z" fill="#E1E7EA"/>
        <path d="M576.823 361.524C573.73 361.524 571.243 364.016 571.243 367.116C571.243 370.216 573.73 372.707 576.823 372.707C579.916 372.707 582.402 370.216 582.402 367.116C582.402 364.077 579.855 361.524 576.823 361.524Z" fill="#E1E7EA"/>
        <path d="M526.12 421.025C525.635 419.749 524.604 418.716 523.391 418.108C524.301 419.08 525.21 420.053 526.12 421.025Z" fill="#E1E7EA"/>
        <path d="M526.545 385.774C526.545 382.675 524.058 380.183 520.965 380.183C517.872 380.183 515.385 382.675 515.385 385.774C515.385 388.874 517.872 391.366 520.965 391.366C524.058 391.366 526.545 388.874 526.545 385.774Z" fill="#E1E7EA"/>
        <path d="M571.243 441.75C571.243 444.85 573.73 447.341 576.823 447.341C579.916 447.341 582.402 444.85 582.402 441.75C582.402 438.65 579.916 436.159 576.823 436.159C573.73 436.159 571.243 438.65 571.243 441.75Z" fill="#E1E7EA"/>
        <path d="M595.442 428.683C598.535 428.683 601.022 426.191 601.022 423.091C601.022 419.992 598.535 417.5 595.442 417.5C592.349 417.5 589.862 419.992 589.862 423.091C589.862 426.191 592.349 428.683 595.442 428.683Z" fill="#E1E7EA"/>
        <path d="M558.203 428.683C561.297 428.683 563.783 426.191 563.783 423.091C563.783 419.992 561.297 417.5 558.203 417.5C555.11 417.5 552.624 419.992 552.624 423.091C552.624 426.191 555.11 428.683 558.203 428.683Z" fill="#E1E7EA"/>
        <path d="M520.965 242.159C524.058 242.159 526.545 239.667 526.545 236.567C526.545 233.467 524.058 230.976 520.965 230.976C517.872 230.976 515.385 233.467 515.385 236.567C515.385 239.667 517.872 242.159 520.965 242.159Z" fill="#E1E7EA"/>
        <path d="M502.346 260.817C505.439 260.817 507.925 258.325 507.925 255.226C507.925 252.126 505.439 249.634 502.346 249.634C501.982 249.634 501.679 249.695 501.315 249.756C499.98 252.43 498.646 255.165 497.433 257.9C498.403 259.602 500.223 260.817 502.346 260.817Z" fill="#E1E7EA"/>
        <path d="M487.365 344.264C487.79 346.513 488.214 348.761 488.7 351.01C489.063 350.281 489.306 349.43 489.306 348.518C489.306 346.756 488.518 345.297 487.365 344.264Z" fill="#E1E7EA"/>
        <path d="M489.306 311.201C489.306 308.709 487.669 306.643 485.485 305.914C485.182 309.439 485 313.024 485 316.61C487.487 316.003 489.306 313.815 489.306 311.201Z" fill="#E1E7EA"/>
        <path d="M502.346 335.451C505.439 335.451 507.925 332.959 507.925 329.86C507.925 326.76 505.439 324.268 502.346 324.268C499.253 324.268 496.766 326.76 496.766 329.86C496.766 332.898 499.253 335.451 502.346 335.451Z" fill="#E1E7EA"/>
        <path d="M496.766 292.543C496.766 295.642 499.253 298.134 502.346 298.134C505.439 298.134 507.925 295.642 507.925 292.543C507.925 289.443 505.439 286.951 502.346 286.951C499.253 286.951 496.766 289.443 496.766 292.543Z" fill="#E1E7EA"/>
        <path d="M520.965 279.476C524.058 279.476 526.545 276.984 526.545 273.884C526.545 270.784 524.058 268.293 520.965 268.293C517.872 268.293 515.385 270.784 515.385 273.884C515.385 276.923 517.872 279.476 520.965 279.476Z" fill="#E1E7EA"/>
        <path d="M496.766 367.116C496.766 370.216 499.253 372.707 502.346 372.707C505.439 372.707 507.925 370.216 507.925 367.116C507.925 364.016 505.439 361.524 502.346 361.524C499.253 361.524 496.766 364.077 496.766 367.116Z" fill="#E1E7EA"/>
    </g>
    <path d="M228.722 483.354L216.138 509.519L187.835 503.046L175.251 529.212L146.923 522.75L134.561 548.452L134.573 548.476L134.463 548.678L106.171 542.229L93.5755 568.371L65.2836 561.922L52.6642 588.075L24.3723 581.626L11.9987 607.304L13.5335 610.49L25.8955 584.788L54.199 591.262L66.8068 565.084L95.1103 571.557L107.694 545.392L135.997 551.865L136.145 551.556L136.134 551.532L148.458 525.937L176.774 532.374L189.369 506.233L217.661 512.682L230.257 486.54L258.549 492.989L258.696 492.68L257.173 489.518L257.025 489.827L228.722 483.354Z" fill="#E1E7EA"/>
    <path d="M245.735 466.386L217.432 459.912L204.848 486.078L176.545 479.605L163.961 505.771L135.634 499.309L123.272 525.011L123.283 525.035L123.173 525.237L94.8808 518.788L82.2856 544.93L53.9937 538.481L41.3743 564.634L13.0824 558.185L0.720416 583.887L2.24357 587.049L14.6055 561.347L42.9091 567.82L55.5168 541.643L83.8203 548.116L96.404 521.951L124.708 528.424L124.855 528.115L124.844 528.091L137.168 502.496L165.484 508.933L178.08 482.792L206.371 489.241L218.967 463.099L247.259 469.548L247.406 469.239L245.883 466.077L245.735 466.386Z" fill="#E1E7EA"/>
    <path d="M251.395 530.429L238.8 556.57L210.508 550.121L197.912 576.263L169.596 569.826L157.223 595.503L157.234 595.528L157.136 595.754L128.832 589.28L116.248 615.446L87.9449 608.973L75.3372 635.15L47.0336 628.677L34.6716 654.379L36.1948 657.542L48.5568 631.84L76.8603 638.313L89.468 612.135L117.772 618.609L130.355 592.443L158.659 598.916L158.807 598.607L158.795 598.583L171.12 572.988L199.436 579.425L212.031 553.284L240.323 559.733L252.918 533.591L281.21 540.04L281.369 539.756L279.834 536.569L279.687 536.878L251.395 530.429Z" fill="#E1E7EA"/>
    <path d="M240.105 506.988L227.51 533.129L199.218 526.68L186.622 552.822L158.306 546.384L145.933 572.062L145.944 572.086L145.846 572.313L117.542 565.839L104.958 592.005L76.6549 585.532L64.0472 611.709L35.7437 605.236L23.3817 630.938L24.9049 634.1L37.2785 608.423L65.5704 614.872L78.1897 588.718L106.482 595.168L119.077 569.026L147.369 575.475L147.517 575.166L147.505 575.142L159.83 549.547L188.146 555.984L200.741 529.843L229.033 536.292L241.628 510.15L269.92 516.599L270.079 516.314L268.556 513.152L268.397 513.437L240.105 506.988Z" fill="#E1E7EA"/>
    <path d="M111.904 472.4C109.197 471.98 107.34 469.446 107.759 466.743C108.164 464.021 110.719 462.17 113.425 462.59C116.132 463.01 117.989 465.544 117.57 468.247C117.148 470.967 114.611 472.82 111.904 472.4Z" fill="#01A6FF"/>
    <path d="M133.071 426.893C131.561 426.659 130.526 425.246 130.76 423.739C130.985 422.221 132.41 421.19 133.919 421.424C135.428 421.658 136.463 423.071 136.229 424.578C135.994 426.094 134.58 427.127 133.071 426.893Z" fill="#FFC01E"/>
    <g clip-path="url(#clip1_0_53)">
        <path d="M171 20L191 40L211 20L191 0L171 20ZM204.773 20L191 33.7733L177.227 20L191 6.22669L204.773 20Z" fill="#01A6FF"/>
    </g>
    <defs>
        <clipPath id="clip0_0_53">
            <rect width="299" height="291" fill="white" transform="translate(485 175)"/>
        </clipPath>
        <clipPath id="clip1_0_53">
            <rect width="40" height="40" fill="white" transform="translate(171)"/>
        </clipPath>
    </defs>
</svg>
