<svg width="25" height="25" viewBox="0 0 25 25" fill="none" xmlns="http://www.w3.org/2000/svg">
    <path d="M12.913 2.94922C15.6201 2.94922 15.9579 2.95918 17.0201 3.009C18.0812 3.05882 18.8036 3.22522 19.4393 3.47232C20.0969 3.7254 20.6508 4.06815 21.2048 4.62114C21.7115 5.11922 22.1035 5.72173 22.3537 6.38672C22.5998 7.02141 22.7672 7.74478 22.817 8.80592C22.8638 9.86806 22.8768 10.2058 22.8768 12.913C22.8768 15.6201 22.8668 15.9579 22.817 17.0201C22.7672 18.0812 22.5998 18.8036 22.3537 19.4393C22.1042 20.1046 21.7121 20.7073 21.2048 21.2048C20.7066 21.7113 20.1041 22.1033 19.4393 22.3537C18.8046 22.5998 18.0812 22.7672 17.0201 22.817C15.9579 22.8638 15.6201 22.8768 12.913 22.8768C10.2058 22.8768 9.86806 22.8668 8.80592 22.817C7.74478 22.7672 7.02241 22.5998 6.38672 22.3537C5.72146 22.104 5.11886 21.7119 4.62114 21.2048C4.11439 20.7068 3.72234 20.1043 3.47232 19.4393C3.22522 18.8046 3.05882 18.0812 3.009 17.0201C2.96217 15.9579 2.94922 15.6201 2.94922 12.913C2.94922 10.2058 2.95918 9.86806 3.009 8.80592C3.05882 7.74378 3.22522 7.02241 3.47232 6.38672C3.72165 5.72132 4.11379 5.11865 4.62114 4.62114C5.119 4.11421 5.72157 3.72214 6.38672 3.47232C7.02241 3.22522 7.74378 3.05882 8.80592 3.009C9.86806 2.96217 10.2058 2.94922 12.913 2.94922ZM12.913 7.9311C11.5917 7.9311 10.3245 8.45598 9.39026 9.39026C8.45598 10.3245 7.9311 11.5917 7.9311 12.913C7.9311 14.2343 8.45598 15.5014 9.39026 16.4357C10.3245 17.37 11.5917 17.8949 12.913 17.8949C14.2343 17.8949 15.5014 17.37 16.4357 16.4357C17.37 15.5014 17.8949 14.2343 17.8949 12.913C17.8949 11.5917 17.37 10.3245 16.4357 9.39026C15.5014 8.45598 14.2343 7.9311 12.913 7.9311ZM19.3894 7.68201C19.3894 7.35169 19.2582 7.0349 19.0246 6.80133C18.7911 6.56776 18.4743 6.43654 18.144 6.43654C17.8136 6.43654 17.4969 6.56776 17.2633 6.80133C17.0297 7.0349 16.8985 7.35169 16.8985 7.68201C16.8985 8.01233 17.0297 8.32912 17.2633 8.56269C17.4969 8.79626 17.8136 8.92748 18.144 8.92748C18.4743 8.92748 18.7911 8.79626 19.0246 8.56269C19.2582 8.32912 19.3894 8.01233 19.3894 7.68201ZM12.913 9.92386C13.7058 9.92386 14.466 10.2388 15.0266 10.7994C15.5872 11.3599 15.9021 12.1202 15.9021 12.913C15.9021 13.7058 15.5872 14.466 15.0266 15.0266C14.466 15.5872 13.7058 15.9021 12.913 15.9021C12.1202 15.9021 11.3599 15.5872 10.7994 15.0266C10.2388 14.466 9.92386 13.7058 9.92386 12.913C9.92386 12.1202 10.2388 11.3599 10.7994 10.7994C11.3599 10.2388 12.1202 9.92386 12.913 9.92386Z" fill="#1EAEFF"/>
</svg>
