<svg width="28" height="28" viewBox="0 0 28 28" fill="none" xmlns="http://www.w3.org/2000/svg">
    <path d="M13.9129 3.22327C11.3104 3.22337 8.79286 4.14952 6.81072 5.836C4.82858 7.52247 3.51121 9.85922 3.09432 12.4281C2.67743 14.997 3.18823 17.6305 4.53532 19.8572C5.88241 22.084 7.97789 23.7587 10.4468 24.5818C10.9948 24.6778 11.2003 24.349 11.2003 24.0612C11.2003 23.8009 11.1866 22.9378 11.1866 22.0199C8.43286 22.5268 7.72045 21.3486 7.50125 20.7321C7.25802 20.1325 6.87244 19.6012 6.37783 19.184C5.99423 18.9785 5.44622 18.4716 6.36412 18.4579C6.71461 18.4959 7.05077 18.6179 7.34411 18.8134C7.63745 19.009 7.87933 19.2724 8.04926 19.5813C8.19916 19.8506 8.40073 20.0876 8.64241 20.2789C8.88409 20.4701 9.16113 20.6118 9.45767 20.6958C9.7542 20.7798 10.0644 20.8045 10.3705 20.7684C10.6766 20.7323 10.9725 20.6362 11.2414 20.4855C11.2888 19.9283 11.5371 19.4073 11.9401 19.0196C9.50147 18.7456 6.95324 17.8002 6.95324 13.608C6.93784 12.5188 7.33979 11.4649 8.07666 10.6625C7.74158 9.71578 7.78079 8.67683 8.18626 7.75806C8.18626 7.75806 9.10414 7.47034 11.2003 8.88147C12.9937 8.38824 14.887 8.38824 16.6804 8.88147C18.7765 7.45666 19.6944 7.75806 19.6944 7.75806C20.0999 8.67682 20.1391 9.71579 19.804 10.6625C20.5431 11.4635 20.9454 12.5183 20.9274 13.608C20.9274 17.814 18.3655 18.7456 15.9269 19.0196C16.1884 19.2847 16.3899 19.603 16.5175 19.9529C16.6452 20.3027 16.696 20.676 16.6667 21.0472C16.6667 22.5132 16.653 23.6913 16.653 24.0613C16.653 24.349 16.8585 24.6915 17.4065 24.5819C19.871 23.7521 21.9605 22.0734 23.3018 19.8455C24.6432 17.6176 25.1491 14.9855 24.7294 12.4191C24.3096 9.85267 22.9914 7.51895 21.0101 5.83453C19.0289 4.15011 16.5135 3.22462 13.9129 3.22327Z" fill="#1EAEFF"/>
</svg>
