<svg width="25" height="25" viewBox="0 0 25 25" fill="none" xmlns="http://www.w3.org/2000/svg">
    <path fill-rule="evenodd" clip-rule="evenodd" d="M10.3513 9.89297H14.0518V11.7363C14.5849 10.6761 15.9519 9.72359 18.0055 9.72359C21.9422 9.72359 22.8768 11.8339 22.8768 15.7058V22.8768H18.8912V16.5876C18.8912 14.3826 18.3582 13.1392 17.0011 13.1392C15.119 13.1392 14.3368 14.4793 14.3368 16.5866V22.8768H10.3513V9.89297ZM3.51715 22.7074H7.50266V9.72359H3.51715V22.7074ZM8.07359 5.48998C8.07373 5.82404 8.00748 6.1548 7.87868 6.46303C7.74988 6.77126 7.5611 7.05082 7.32331 7.28545C6.84147 7.76433 6.18925 8.03239 5.50991 8.03074C4.83176 8.03029 4.18105 7.76291 3.69849 7.28645C3.46157 7.05102 3.27343 6.77115 3.14485 6.46287C3.01628 6.1546 2.9498 5.82399 2.94922 5.48998C2.94922 4.81543 3.21824 4.16978 3.69949 3.69351C4.18162 3.21641 4.83261 2.94892 5.5109 2.94922C6.19043 2.94922 6.84206 3.21724 7.32331 3.69351C7.80357 4.16978 8.07359 4.81543 8.07359 5.48998Z" fill="#1EAEFF"/>
</svg>
