<svg width="20" height="20" viewBox="0 0 20 20" fill="none" xmlns="http://www.w3.org/2000/svg">
<path d="M14.1673 7.50006H7.50065V5.83339C7.49944 5.33855 7.6451 4.85447 7.9192 4.44248C8.1933 4.03048 8.5835 3.70909 9.04039 3.51902C9.49727 3.32895 10.0003 3.27874 10.4857 3.37476C10.9712 3.47078 11.4172 3.7087 11.7673 4.05839C12.0806 4.37845 12.3047 4.77491 12.4173 5.20839C12.4447 5.31454 12.4927 5.41426 12.5586 5.50187C12.6245 5.58947 12.707 5.66323 12.8014 5.71895C12.8958 5.77466 13.0002 5.81124 13.1088 5.82658C13.2173 5.84193 13.3278 5.83575 13.434 5.80839C13.5401 5.78103 13.6399 5.73303 13.7275 5.66713C13.8151 5.60123 13.8888 5.51873 13.9445 5.42432C14.0003 5.32991 14.0368 5.22546 14.0522 5.11692C14.0675 5.00838 14.0613 4.89787 14.034 4.79172C13.8441 4.07072 13.4676 3.4125 12.9423 2.88339C12.3591 2.30203 11.6168 1.9065 10.8089 1.74676C10.0011 1.58701 9.1641 1.67021 8.40353 1.98585C7.64297 2.30149 6.99299 2.83541 6.53566 3.5202C6.07833 4.20499 5.83416 5.00993 5.83398 5.83339V7.50006C5.17094 7.50006 4.53506 7.76345 4.06622 8.23229C3.59738 8.70113 3.33398 9.33701 3.33398 10.0001V15.8334C3.33398 16.4964 3.59738 17.1323 4.06622 17.6012C4.53506 18.07 5.17094 18.3334 5.83398 18.3334H14.1673C14.8304 18.3334 15.4662 18.07 15.9351 17.6012C16.4039 17.1323 16.6673 16.4964 16.6673 15.8334V10.0001C16.6673 9.33701 16.4039 8.70113 15.9351 8.23229C15.4662 7.76345 14.8304 7.50006 14.1673 7.50006ZM15.0007 15.8334C15.0007 16.0544 14.9129 16.2664 14.7566 16.4226C14.6003 16.5789 14.3883 16.6667 14.1673 16.6667H5.83398C5.61297 16.6667 5.40101 16.5789 5.24473 16.4226C5.08845 16.2664 5.00065 16.0544 5.00065 15.8334V10.0001C5.00065 9.77904 5.08845 9.56708 5.24473 9.4108C5.40101 9.25452 5.61297 9.16672 5.83398 9.16672H14.1673C14.3883 9.16672 14.6003 9.25452 14.7566 9.4108C14.9129 9.56708 15.0007 9.77904 15.0007 10.0001V15.8334Z" fill="#57595B"/>
</svg>
