<svg xmlns="http://www.w3.org/2000/svg" width="817" height="551" fill="none"><g fill="#E1E7EA" clip-path="url(#a)"><path d="M795.534 251.226a5.57 5.57 0 0 0-5.579-5.592 5.571 5.571 0 0 0-5.58 5.592 5.571 5.571 0 0 0 5.58 5.591 5.57 5.57 0 0 0 5.579-5.591ZM771.336 264.293a5.57 5.57 0 0 0-5.58 5.591 5.57 5.57 0 0 0 5.58 5.592 5.57 5.57 0 0 0 5.579-5.592 5.57 5.57 0 0 0-5.579-5.591ZM802.994 307.201c0 3.1 2.487 5.592 5.58 5.592.91 0 1.698-.244 2.426-.608-.061-3.464-.182-6.868-.485-10.211a5.338 5.338 0 0 0-2.002-.364c-3.032-.061-5.519 2.492-5.519 5.591ZM795.534 325.799a5.57 5.57 0 0 0-5.579-5.592 5.571 5.571 0 0 0-5.58 5.592 5.57 5.57 0 0 0 5.58 5.591c3.093.061 5.579-2.491 5.579-5.591ZM789.955 282.951a5.571 5.571 0 0 0-5.58 5.592 5.571 5.571 0 0 0 5.58 5.591 5.57 5.57 0 0 0 5.579-5.591 5.57 5.57 0 0 0-5.579-5.592ZM771.336 301.549a5.57 5.57 0 0 0-5.58 5.591 5.57 5.57 0 0 0 5.58 5.592 5.57 5.57 0 0 0 5.579-5.592c0-3.038-2.486-5.591-5.579-5.591ZM805.905 274.746c-.667-2.552-1.455-5.044-2.244-7.475a5.402 5.402 0 0 0-.667 2.613c0 2.067 1.153 3.89 2.911 4.862ZM784.618 398.853a72.229 72.229 0 0 1 1.88-2.735c-.91.668-1.516 1.641-1.88 2.735ZM784.375 363.116a5.57 5.57 0 0 0 5.58 5.591 5.57 5.57 0 0 0 5.579-5.591 5.57 5.57 0 0 0-5.579-5.592c-3.093 0-5.58 2.553-5.58 5.592ZM808.938 338.927c-.121 0-.243-.061-.364-.061a5.571 5.571 0 0 0-5.58 5.591c0 2.431 1.577 4.498 3.7 5.227.91-3.525 1.637-7.111 2.244-10.757ZM734.097 189.659a5.57 5.57 0 0 0-5.58 5.591 5.57 5.57 0 0 0 5.58 5.591 5.57 5.57 0 0 0 5.58-5.591 5.57 5.57 0 0 0-5.58-5.591ZM709.898 176.591c0 3.1 2.487 5.592 5.58 5.592a5.57 5.57 0 0 0 5.579-5.592v-.243a161.409 161.409 0 0 0-9.461-3.768c-1.031 1.033-1.698 2.431-1.698 4.011ZM696.858 189.659a5.57 5.57 0 0 0-5.579 5.591 5.57 5.57 0 0 0 5.579 5.591 5.57 5.57 0 0 0 5.58-5.591 5.57 5.57 0 0 0-5.58-5.591ZM734.097 264.293a5.57 5.57 0 0 0-5.58 5.591c0 3.1 2.487 5.592 5.58 5.592a5.571 5.571 0 0 0 5.58-5.592 5.57 5.57 0 0 0-5.58-5.591ZM771.336 238.159c3.081 0 5.579-2.504 5.579-5.592a5.585 5.585 0 0 0-5.579-5.591 5.585 5.585 0 0 0-5.58 5.591 5.586 5.586 0 0 0 5.58 5.592ZM734.097 238.159a5.571 5.571 0 0 0 5.58-5.592 5.57 5.57 0 0 0-5.58-5.591 5.57 5.57 0 0 0-5.58 5.591c0 3.1 2.487 5.592 5.58 5.592ZM715.478 256.817a5.57 5.57 0 0 0 5.579-5.591 5.57 5.57 0 0 0-5.579-5.592 5.571 5.571 0 0 0-5.58 5.592 5.571 5.571 0 0 0 5.58 5.591ZM758.296 251.226c0-3.1-2.487-5.592-5.58-5.592a5.57 5.57 0 0 0-5.579 5.592 5.57 5.57 0 0 0 5.579 5.591 5.571 5.571 0 0 0 5.58-5.591ZM715.478 219.5a5.57 5.57 0 0 0 5.579-5.592 5.57 5.57 0 0 0-5.579-5.591 5.571 5.571 0 0 0-5.58 5.591c0 3.1 2.487 5.592 5.58 5.592ZM747.137 213.908a5.57 5.57 0 0 0 5.579 5.592 5.571 5.571 0 0 0 5.58-5.592 5.571 5.571 0 0 0-5.58-5.591 5.57 5.57 0 0 0-5.579 5.591ZM696.858 264.293a5.57 5.57 0 0 0-5.579 5.591 5.57 5.57 0 0 0 5.579 5.592 5.57 5.57 0 0 0 5.58-5.592 5.57 5.57 0 0 0-5.58-5.591ZM734.097 338.866a5.571 5.571 0 0 0-5.58 5.591c0 3.1 2.487 5.592 5.58 5.592a5.571 5.571 0 0 0 5.58-5.592c0-3.038-2.487-5.591-5.58-5.591ZM734.097 301.549a5.571 5.571 0 0 0-5.58 5.591c0 3.1 2.487 5.592 5.58 5.592a5.571 5.571 0 0 0 5.58-5.592c0-3.038-2.487-5.591-5.58-5.591ZM721.057 325.799a5.57 5.57 0 0 0-5.579-5.592 5.571 5.571 0 0 0-5.58 5.592 5.57 5.57 0 0 0 5.58 5.591c3.093.061 5.579-2.491 5.579-5.591ZM752.716 320.207a5.57 5.57 0 0 0-5.579 5.592 5.57 5.57 0 0 0 5.579 5.591 5.57 5.57 0 0 0 5.58-5.591c0-3.039-2.487-5.592-5.58-5.592ZM715.478 282.951a5.571 5.571 0 0 0-5.58 5.592 5.571 5.571 0 0 0 5.58 5.591 5.57 5.57 0 0 0 5.579-5.591 5.57 5.57 0 0 0-5.579-5.592ZM752.716 282.951a5.57 5.57 0 0 0-5.579 5.592 5.57 5.57 0 0 0 5.579 5.591 5.571 5.571 0 0 0 5.58-5.591c0-3.1-2.487-5.592-5.58-5.592ZM696.858 338.866a5.57 5.57 0 0 0-5.579 5.591 5.57 5.57 0 0 0 5.579 5.592 5.57 5.57 0 0 0 5.58-5.592c0-3.038-2.486-5.591-5.58-5.591ZM771.336 387.366a5.57 5.57 0 0 0 5.579-5.592 5.57 5.57 0 0 0-5.579-5.591 5.57 5.57 0 0 0-5.58 5.591 5.57 5.57 0 0 0 5.58 5.592ZM734.097 387.366a5.571 5.571 0 0 0 5.58-5.592 5.571 5.571 0 0 0-5.58-5.591 5.571 5.571 0 0 0-5.58 5.591c0 3.1 2.487 5.592 5.58 5.592ZM715.478 394.841a5.571 5.571 0 0 0-5.58 5.592 5.57 5.57 0 0 0 5.58 5.591 5.57 5.57 0 0 0 5.579-5.591 5.57 5.57 0 0 0-5.579-5.592ZM758.296 400.433c0-3.1-2.487-5.592-5.58-5.592a5.57 5.57 0 0 0-5.579 5.592 5.57 5.57 0 0 0 5.579 5.591 5.57 5.57 0 0 0 5.58-5.591ZM715.478 357.524a5.571 5.571 0 0 0-5.58 5.592 5.57 5.57 0 0 0 5.58 5.591 5.57 5.57 0 0 0 5.579-5.591c0-3.039-2.486-5.592-5.579-5.592ZM752.716 357.524a5.57 5.57 0 0 0-5.579 5.592 5.57 5.57 0 0 0 5.579 5.591 5.57 5.57 0 0 0 5.58-5.591c0-3.039-2.487-5.592-5.58-5.592ZM696.858 376.183a5.57 5.57 0 0 0-5.579 5.591 5.57 5.57 0 0 0 5.579 5.592 5.57 5.57 0 0 0 5.58-5.592 5.57 5.57 0 0 0-5.58-5.591ZM771.336 350.11a5.57 5.57 0 0 0 5.579-5.592 5.57 5.57 0 0 0-5.579-5.591 5.57 5.57 0 0 0-5.58 5.591c0 3.039 2.486 5.592 5.58 5.592ZM709.898 437.75a5.57 5.57 0 0 0 5.58 5.591 5.57 5.57 0 0 0 5.579-5.591 5.57 5.57 0 0 0-5.579-5.591 5.57 5.57 0 0 0-5.58 5.591ZM747.258 436.534c2.001-1.397 3.942-2.856 5.883-4.315-.122 0-.303-.06-.425-.06-2.668 0-4.852 1.884-5.458 4.375ZM696.858 450.817a5.57 5.57 0 0 0-5.579 5.591c0 1.52.606 2.918 1.637 3.951a148.135 148.135 0 0 0 9.28-2.31c.181-.486.242-1.033.242-1.58 0-3.16-2.486-5.652-5.58-5.652ZM772.912 413.743c-.485-.121-1.031-.243-1.576-.243a5.57 5.57 0 0 0-5.58 5.591c0 .608.121 1.216.303 1.824 2.365-2.31 4.67-4.68 6.853-7.172ZM734.097 424.683a5.571 5.571 0 0 0 5.58-5.592 5.571 5.571 0 0 0-5.58-5.591 5.571 5.571 0 0 0-5.58 5.591c0 3.1 2.487 5.592 5.58 5.592ZM659.62 189.659a5.57 5.57 0 0 0-5.58 5.591 5.57 5.57 0 0 0 5.58 5.591 5.57 5.57 0 0 0 5.58-5.591 5.57 5.57 0 0 0-5.58-5.591ZM646.641 176.591c0-3.099-2.547-5.591-5.58-5.591a5.57 5.57 0 0 0-5.579 5.591 5.57 5.57 0 0 0 5.579 5.592c3.033 0 5.58-2.492 5.58-5.592ZM683.819 176.591a5.571 5.571 0 0 0-5.58-5.591 5.571 5.571 0 0 0-5.58 5.591c0 3.1 2.487 5.592 5.58 5.592a5.571 5.571 0 0 0 5.58-5.592ZM696.858 238.159a5.57 5.57 0 0 0 5.58-5.592 5.57 5.57 0 0 0-5.58-5.591 5.57 5.57 0 0 0-5.579 5.591 5.57 5.57 0 0 0 5.579 5.592ZM659.62 238.159a5.571 5.571 0 0 0 5.58-5.592 5.57 5.57 0 0 0-5.58-5.591 5.57 5.57 0 0 0-5.58 5.591c0 3.1 2.547 5.592 5.58 5.592ZM641.061 256.817a5.571 5.571 0 0 0 5.58-5.591c0-3.1-2.487-5.592-5.58-5.592a5.57 5.57 0 0 0-5.579 5.592c-.061 3.099 2.486 5.591 5.579 5.591ZM678.239 256.817a5.571 5.571 0 0 0 5.58-5.591c0-3.1-2.487-5.592-5.58-5.592a5.571 5.571 0 0 0-5.58 5.592c0 3.099 2.548 5.591 5.58 5.591ZM641.061 219.5a5.571 5.571 0 0 0 5.58-5.592 5.571 5.571 0 0 0-5.58-5.591 5.57 5.57 0 0 0-5.579 5.591c-.061 3.1 2.486 5.592 5.579 5.592ZM678.239 219.5a5.571 5.571 0 0 0 5.58-5.592 5.571 5.571 0 0 0-5.58-5.591 5.571 5.571 0 0 0-5.58 5.591c0 3.1 2.548 5.592 5.58 5.592ZM659.62 338.866a5.571 5.571 0 0 0-5.58 5.591c0 3.1 2.487 5.592 5.58 5.592a5.571 5.571 0 0 0 5.58-5.592c0-3.038-2.487-5.591-5.58-5.591ZM696.858 312.793a5.57 5.57 0 0 0 5.58-5.592 5.57 5.57 0 0 0-5.58-5.591 5.57 5.57 0 0 0-5.579 5.591 5.57 5.57 0 0 0 5.579 5.592ZM659.62 301.549a5.571 5.571 0 0 0-5.58 5.591c0 3.1 2.487 5.592 5.58 5.592a5.571 5.571 0 0 0 5.58-5.592c0-3.038-2.487-5.591-5.58-5.591ZM641.061 320.207a5.57 5.57 0 0 0-5.579 5.592 5.57 5.57 0 0 0 5.579 5.591 5.57 5.57 0 0 0 5.58-5.591c0-3.039-2.547-5.592-5.58-5.592ZM678.239 320.207a5.571 5.571 0 0 0-5.58 5.592 5.57 5.57 0 0 0 5.58 5.591 5.57 5.57 0 0 0 5.58-5.591c0-3.039-2.487-5.592-5.58-5.592ZM641.061 282.951a5.57 5.57 0 0 0-5.579 5.592 5.57 5.57 0 0 0 5.579 5.591 5.571 5.571 0 0 0 5.58-5.591c0-3.1-2.547-5.592-5.58-5.592ZM678.239 282.951a5.571 5.571 0 0 0-5.58 5.592 5.571 5.571 0 0 0 5.58 5.591 5.571 5.571 0 0 0 5.58-5.591c0-3.1-2.487-5.592-5.58-5.592ZM622.442 338.866a5.571 5.571 0 0 0-5.58 5.591c0 3.1 2.487 5.592 5.58 5.592a5.571 5.571 0 0 0 5.58-5.592c0-3.038-2.548-5.591-5.58-5.591ZM622.442 301.549a5.571 5.571 0 0 0-5.58 5.591c0 3.1 2.487 5.592 5.58 5.592a5.571 5.571 0 0 0 5.58-5.592c0-3.038-2.548-5.591-5.58-5.591ZM659.62 275.476a5.571 5.571 0 0 0 5.58-5.592 5.57 5.57 0 0 0-5.58-5.591 5.57 5.57 0 0 0-5.58 5.591c0 3.039 2.547 5.592 5.58 5.592ZM659.62 413.5a5.571 5.571 0 0 0-5.58 5.591c0 3.1 2.487 5.592 5.58 5.592a5.571 5.571 0 0 0 5.58-5.592 5.571 5.571 0 0 0-5.58-5.591ZM659.62 376.183a5.571 5.571 0 0 0-5.58 5.591c0 3.1 2.487 5.592 5.58 5.592a5.571 5.571 0 0 0 5.58-5.592 5.571 5.571 0 0 0-5.58-5.591ZM641.061 394.841a5.57 5.57 0 0 0-5.579 5.592 5.57 5.57 0 0 0 5.579 5.591 5.57 5.57 0 0 0 5.58-5.591c0-3.1-2.547-5.592-5.58-5.592ZM678.239 394.841a5.571 5.571 0 0 0-5.58 5.592 5.57 5.57 0 0 0 5.58 5.591 5.57 5.57 0 0 0 5.58-5.591c0-3.1-2.487-5.592-5.58-5.592ZM641.061 357.524a5.57 5.57 0 0 0-5.579 5.592 5.57 5.57 0 0 0 5.579 5.591 5.57 5.57 0 0 0 5.58-5.591c0-3.039-2.547-5.592-5.58-5.592ZM678.239 357.524a5.571 5.571 0 0 0-5.58 5.592 5.57 5.57 0 0 0 5.58 5.591 5.57 5.57 0 0 0 5.58-5.591c0-3.039-2.487-5.592-5.58-5.592ZM622.442 376.183a5.571 5.571 0 0 0-5.58 5.591c0 3.1 2.487 5.592 5.58 5.592a5.571 5.571 0 0 0 5.58-5.592c0-3.099-2.548-5.591-5.58-5.591ZM659.62 450.817a5.571 5.571 0 0 0-5.58 5.591c0 3.1 2.487 5.592 5.58 5.592a5.571 5.571 0 0 0 5.58-5.592 5.571 5.571 0 0 0-5.58-5.591ZM635.421 437.75a5.57 5.57 0 0 0 5.58 5.591 5.57 5.57 0 0 0 5.579-5.591 5.57 5.57 0 0 0-5.579-5.591c-3.033 0-5.58 2.491-5.58 5.591ZM672.659 437.75a5.57 5.57 0 0 0 5.58 5.591 5.57 5.57 0 0 0 5.58-5.591 5.57 5.57 0 0 0-5.58-5.591c-3.032 0-5.58 2.491-5.58 5.591ZM622.442 450.817a5.571 5.571 0 0 0-5.58 5.591c0 .183.061.304.061.487a137.89 137.89 0 0 0 10.128 2.735c.607-.912 1.031-2.006 1.031-3.222-.06-3.099-2.608-5.591-5.64-5.591ZM696.858 424.683a5.57 5.57 0 0 0 5.58-5.592 5.57 5.57 0 0 0-5.58-5.591 5.57 5.57 0 0 0-5.579 5.591 5.57 5.57 0 0 0 5.579 5.592ZM585.203 189.659a5.57 5.57 0 0 0-5.579 5.591 5.57 5.57 0 0 0 5.579 5.591 5.57 5.57 0 0 0 5.58-5.591 5.57 5.57 0 0 0-5.58-5.591ZM603.823 182.183a5.57 5.57 0 0 0 5.579-5.592 5.307 5.307 0 0 0-.849-2.917c-3.457 1.337-6.853 2.735-10.128 4.315.606 2.371 2.79 4.194 5.398 4.194ZM622.442 238.159a5.571 5.571 0 0 0 5.58-5.592 5.57 5.57 0 0 0-5.58-5.591 5.57 5.57 0 0 0-5.58 5.591c0 3.1 2.487 5.592 5.58 5.592ZM585.203 238.159a5.586 5.586 0 0 0 5.58-5.592 5.585 5.585 0 0 0-5.58-5.591 5.585 5.585 0 0 0-5.579 5.591c0 3.088 2.498 5.592 5.579 5.592ZM572.164 251.226c0-3.1-2.487-5.592-5.58-5.592a5.57 5.57 0 0 0-5.579 5.592 5.57 5.57 0 0 0 5.579 5.591 5.571 5.571 0 0 0 5.58-5.591ZM603.823 256.817a5.57 5.57 0 0 0 5.579-5.591 5.57 5.57 0 0 0-5.579-5.592 5.571 5.571 0 0 0-5.58 5.592 5.571 5.571 0 0 0 5.58 5.591ZM561.005 213.908a5.57 5.57 0 0 0 5.579 5.592 5.571 5.571 0 0 0 5.58-5.592 5.571 5.571 0 0 0-5.58-5.591 5.57 5.57 0 0 0-5.579 5.591ZM603.823 219.5a5.57 5.57 0 0 0 5.579-5.592 5.57 5.57 0 0 0-5.579-5.591 5.571 5.571 0 0 0-5.58 5.591c0 3.1 2.487 5.592 5.58 5.592ZM622.442 200.841a5.57 5.57 0 0 0 5.58-5.591 5.57 5.57 0 0 0-5.58-5.591 5.57 5.57 0 0 0-5.58 5.591 5.57 5.57 0 0 0 5.58 5.591ZM585.203 338.866a5.57 5.57 0 0 0-5.579 5.591 5.57 5.57 0 0 0 5.579 5.592 5.57 5.57 0 0 0 5.58-5.592c0-3.038-2.486-5.591-5.58-5.591ZM585.203 301.549a5.57 5.57 0 0 0-5.579 5.591 5.57 5.57 0 0 0 5.579 5.592 5.57 5.57 0 0 0 5.58-5.592c0-3.038-2.486-5.591-5.58-5.591ZM566.584 320.207a5.57 5.57 0 0 0-5.579 5.592 5.57 5.57 0 0 0 5.579 5.591 5.57 5.57 0 0 0 5.58-5.591c0-3.039-2.487-5.592-5.58-5.592ZM603.823 320.207a5.571 5.571 0 0 0-5.58 5.592 5.57 5.57 0 0 0 5.58 5.591 5.57 5.57 0 0 0 5.579-5.591c0-3.039-2.547-5.592-5.579-5.592ZM566.584 282.951a5.57 5.57 0 0 0-5.579 5.592 5.57 5.57 0 0 0 5.579 5.591 5.571 5.571 0 0 0 5.58-5.591c0-3.1-2.487-5.592-5.58-5.592ZM603.823 282.951a5.571 5.571 0 0 0-5.58 5.592 5.571 5.571 0 0 0 5.58 5.591 5.57 5.57 0 0 0 5.579-5.591c0-3.1-2.547-5.592-5.579-5.592ZM547.965 338.866a5.571 5.571 0 0 0-5.58 5.591c0 3.1 2.487 5.592 5.58 5.592a5.571 5.571 0 0 0 5.58-5.592c0-3.038-2.487-5.591-5.58-5.591ZM547.965 301.549a5.571 5.571 0 0 0-5.58 5.591c0 3.1 2.487 5.592 5.58 5.592a5.571 5.571 0 0 0 5.58-5.592c0-3.038-2.487-5.591-5.58-5.591ZM622.442 275.476a5.571 5.571 0 0 0 5.58-5.592 5.57 5.57 0 0 0-5.58-5.591 5.57 5.57 0 0 0-5.58 5.591c0 3.039 2.487 5.592 5.58 5.592ZM585.203 275.476a5.57 5.57 0 0 0 5.58-5.592 5.57 5.57 0 0 0-5.58-5.591 5.57 5.57 0 0 0-5.579 5.591c0 3.039 2.486 5.592 5.579 5.592ZM585.203 376.183a5.57 5.57 0 0 0-5.579 5.591 5.57 5.57 0 0 0 5.579 5.592 5.57 5.57 0 0 0 5.58-5.592 5.57 5.57 0 0 0-5.58-5.591ZM566.584 394.841a5.57 5.57 0 0 0-5.579 5.592 5.57 5.57 0 0 0 5.579 5.591 5.57 5.57 0 0 0 5.58-5.591c0-3.1-2.487-5.592-5.58-5.592ZM603.823 394.841a5.571 5.571 0 0 0-5.58 5.592 5.57 5.57 0 0 0 5.58 5.591 5.57 5.57 0 0 0 5.579-5.591c0-3.1-2.547-5.592-5.579-5.592ZM566.584 357.524a5.57 5.57 0 0 0-5.579 5.592 5.57 5.57 0 0 0 5.579 5.591 5.57 5.57 0 0 0 5.58-5.591c0-3.039-2.487-5.592-5.58-5.592ZM603.823 357.524a5.571 5.571 0 0 0-5.58 5.592 5.57 5.57 0 0 0 5.58 5.591 5.57 5.57 0 0 0 5.579-5.591c0-3.039-2.547-5.592-5.579-5.592ZM553.12 417.025c-.485-1.276-1.516-2.309-2.729-2.917l2.729 2.917ZM553.545 381.774a5.571 5.571 0 0 0-5.58-5.591 5.571 5.571 0 0 0-5.58 5.591c0 3.1 2.487 5.592 5.58 5.592a5.571 5.571 0 0 0 5.58-5.592ZM598.243 437.75a5.57 5.57 0 0 0 5.58 5.591 5.57 5.57 0 0 0 5.579-5.591 5.57 5.57 0 0 0-5.579-5.591 5.57 5.57 0 0 0-5.58 5.591ZM622.442 424.683a5.571 5.571 0 0 0 5.58-5.592 5.571 5.571 0 0 0-5.58-5.591 5.571 5.571 0 0 0-5.58 5.591c0 3.1 2.487 5.592 5.58 5.592ZM585.203 424.683a5.57 5.57 0 0 0 5.58-5.592 5.57 5.57 0 0 0-5.58-5.591 5.57 5.57 0 0 0-5.579 5.591 5.57 5.57 0 0 0 5.579 5.592ZM547.965 238.159a5.571 5.571 0 0 0 5.58-5.592 5.57 5.57 0 0 0-5.58-5.591 5.57 5.57 0 0 0-5.58 5.591c0 3.1 2.487 5.592 5.58 5.592ZM529.346 256.817a5.57 5.57 0 0 0 5.579-5.591 5.57 5.57 0 0 0-5.579-5.592c-.364 0-.667.061-1.031.122-1.335 2.674-2.669 5.409-3.882 8.144.97 1.702 2.79 2.917 4.913 2.917ZM514.365 340.264c.425 2.249.849 4.497 1.335 6.746.364-.729.606-1.58.606-2.492 0-1.762-.788-3.221-1.941-4.254ZM516.306 307.201c0-2.492-1.637-4.558-3.821-5.287A125.16 125.16 0 0 0 512 312.61c2.487-.607 4.306-2.795 4.306-5.409ZM529.346 331.451a5.57 5.57 0 0 0 5.579-5.591 5.57 5.57 0 0 0-5.579-5.592 5.57 5.57 0 0 0-5.58 5.592c0 3.039 2.486 5.591 5.58 5.591ZM523.766 288.543a5.57 5.57 0 0 0 5.58 5.591 5.57 5.57 0 0 0 5.579-5.591 5.57 5.57 0 0 0-5.579-5.592 5.57 5.57 0 0 0-5.58 5.592ZM547.965 275.476a5.571 5.571 0 0 0 5.58-5.592 5.57 5.57 0 0 0-5.58-5.591 5.57 5.57 0 0 0-5.58 5.591c0 3.039 2.487 5.592 5.58 5.592ZM523.766 363.116a5.57 5.57 0 0 0 5.58 5.591 5.57 5.57 0 0 0 5.579-5.591 5.57 5.57 0 0 0-5.579-5.592c-3.094 0-5.58 2.553-5.58 5.592Z"/></g><path fill="#01A6FF" d="M717.904 550.57a4.961 4.961 0 0 1-4.145-5.657c.405-2.722 2.96-4.572 5.666-4.153a4.962 4.962 0 0 1 4.145 5.657 4.964 4.964 0 0 1-5.666 4.153Z"/><path fill="#FFC01E" d="M739.071 505.063a2.765 2.765 0 0 1-2.311-3.153 2.762 2.762 0 0 1 3.159-2.316 2.767 2.767 0 0 1-.848 5.469Z"/><g clip-path="url(#b)"><path fill="#01A6FF" d="m777 20 20 20 20-20-20-20-20 20Zm33.773 0L797 33.773 783.227 20 797 6.227 810.773 20Z"/></g><g clip-path="url(#c)"><path fill="#01A6FF" d="m0 188 20 20 20-20-20-20-20 20Zm33.773 0L20 201.773 6.227 188 20 174.227 33.773 188Z"/></g><defs><clipPath id="a"><path fill="#fff" d="M512 171h299v291H512z"/></clipPath><clipPath id="b"><path fill="#fff" d="M777 0h40v40h-40z"/></clipPath><clipPath id="c"><path fill="#fff" d="M0 168h40v40H0z"/></clipPath></defs></svg>