<svg xmlns="http://www.w3.org/2000/svg" width="784" height="656" fill="none"><g fill="#E1E7EA" clip-path="url(#a)"><path d="M768.534 255.226a5.57 5.57 0 0 0-5.579-5.592 5.571 5.571 0 0 0-5.58 5.592 5.571 5.571 0 0 0 5.58 5.591 5.57 5.57 0 0 0 5.579-5.591ZM744.335 268.293a5.57 5.57 0 0 0-5.579 5.591 5.57 5.57 0 0 0 5.579 5.592 5.57 5.57 0 0 0 5.58-5.592 5.57 5.57 0 0 0-5.58-5.591ZM775.994 311.201c0 3.1 2.487 5.592 5.58 5.592.91 0 1.698-.243 2.426-.608-.061-3.464-.182-6.868-.485-10.211a5.338 5.338 0 0 0-2.002-.364c-3.032-.061-5.519 2.492-5.519 5.591ZM768.534 329.799a5.57 5.57 0 0 0-5.579-5.592 5.571 5.571 0 0 0-5.58 5.592 5.57 5.57 0 0 0 5.58 5.591c3.093.061 5.579-2.491 5.579-5.591ZM762.955 286.951a5.571 5.571 0 0 0-5.58 5.592 5.571 5.571 0 0 0 5.58 5.591 5.57 5.57 0 0 0 5.579-5.591 5.57 5.57 0 0 0-5.579-5.592ZM744.335 305.549a5.57 5.57 0 0 0-5.579 5.591 5.57 5.57 0 0 0 5.579 5.592 5.57 5.57 0 0 0 5.58-5.592c0-3.039-2.486-5.591-5.58-5.591ZM778.906 278.746c-.668-2.552-1.456-5.044-2.244-7.475a5.391 5.391 0 0 0-.668 2.613c0 2.066 1.153 3.89 2.912 4.862ZM757.618 402.853a72.229 72.229 0 0 1 1.88-2.735c-.91.668-1.516 1.641-1.88 2.735ZM757.375 367.116a5.57 5.57 0 0 0 5.58 5.591 5.57 5.57 0 0 0 5.579-5.591 5.57 5.57 0 0 0-5.579-5.592c-3.093 0-5.58 2.553-5.58 5.592ZM781.938 342.927c-.121 0-.243-.061-.364-.061a5.571 5.571 0 0 0-5.58 5.591c0 2.432 1.577 4.498 3.7 5.227.91-3.525 1.638-7.111 2.244-10.757ZM707.097 193.659a5.57 5.57 0 0 0-5.58 5.591c0 3.1 2.487 5.592 5.58 5.592a5.571 5.571 0 0 0 5.58-5.592 5.57 5.57 0 0 0-5.58-5.591ZM682.898 180.591c0 3.1 2.487 5.592 5.58 5.592a5.57 5.57 0 0 0 5.579-5.592v-.243a161.409 161.409 0 0 0-9.461-3.768c-1.031 1.033-1.698 2.431-1.698 4.011ZM669.858 193.659a5.57 5.57 0 0 0-5.579 5.591 5.57 5.57 0 0 0 5.579 5.592 5.57 5.57 0 0 0 5.58-5.592 5.57 5.57 0 0 0-5.58-5.591ZM707.097 268.293a5.57 5.57 0 0 0-5.58 5.591c0 3.1 2.487 5.592 5.58 5.592a5.571 5.571 0 0 0 5.58-5.592 5.57 5.57 0 0 0-5.58-5.591ZM744.335 242.159a5.586 5.586 0 0 0 5.58-5.592 5.585 5.585 0 0 0-5.58-5.591 5.585 5.585 0 0 0-5.579 5.591c0 3.088 2.498 5.592 5.579 5.592ZM707.097 242.159a5.571 5.571 0 0 0 5.58-5.592 5.57 5.57 0 0 0-5.58-5.591 5.57 5.57 0 0 0-5.58 5.591c0 3.1 2.487 5.592 5.58 5.592ZM688.478 260.817a5.57 5.57 0 0 0 5.579-5.591 5.57 5.57 0 0 0-5.579-5.592 5.571 5.571 0 0 0-5.58 5.592 5.571 5.571 0 0 0 5.58 5.591ZM731.296 255.226c0-3.1-2.487-5.592-5.58-5.592a5.571 5.571 0 0 0-5.58 5.592 5.571 5.571 0 0 0 5.58 5.591 5.571 5.571 0 0 0 5.58-5.591ZM688.478 223.5a5.57 5.57 0 0 0 5.579-5.592 5.57 5.57 0 0 0-5.579-5.591 5.571 5.571 0 0 0-5.58 5.591c0 3.1 2.487 5.592 5.58 5.592ZM720.136 217.908c0 3.1 2.487 5.592 5.58 5.592a5.571 5.571 0 0 0 5.58-5.592 5.571 5.571 0 0 0-5.58-5.591 5.571 5.571 0 0 0-5.58 5.591ZM669.858 268.293a5.57 5.57 0 0 0-5.579 5.591 5.57 5.57 0 0 0 5.579 5.592 5.57 5.57 0 0 0 5.58-5.592 5.57 5.57 0 0 0-5.58-5.591ZM707.097 342.866a5.571 5.571 0 0 0-5.58 5.591c0 3.1 2.487 5.592 5.58 5.592a5.571 5.571 0 0 0 5.58-5.592c0-3.038-2.487-5.591-5.58-5.591ZM707.097 305.549a5.571 5.571 0 0 0-5.58 5.591c0 3.1 2.487 5.592 5.58 5.592a5.571 5.571 0 0 0 5.58-5.592c0-3.039-2.487-5.591-5.58-5.591ZM694.057 329.799a5.57 5.57 0 0 0-5.579-5.592 5.571 5.571 0 0 0-5.58 5.592 5.57 5.57 0 0 0 5.58 5.591c3.093.061 5.579-2.491 5.579-5.591ZM725.716 324.207a5.571 5.571 0 0 0-5.58 5.592 5.57 5.57 0 0 0 5.58 5.591 5.57 5.57 0 0 0 5.58-5.591c0-3.039-2.487-5.592-5.58-5.592ZM688.478 286.951a5.571 5.571 0 0 0-5.58 5.592 5.571 5.571 0 0 0 5.58 5.591 5.57 5.57 0 0 0 5.579-5.591 5.57 5.57 0 0 0-5.579-5.592ZM725.716 286.951a5.571 5.571 0 0 0-5.58 5.592 5.571 5.571 0 0 0 5.58 5.591 5.571 5.571 0 0 0 5.58-5.591c0-3.1-2.487-5.592-5.58-5.592ZM669.858 342.866a5.57 5.57 0 0 0-5.579 5.591 5.57 5.57 0 0 0 5.579 5.592 5.57 5.57 0 0 0 5.58-5.592c0-3.038-2.486-5.591-5.58-5.591ZM744.335 391.366a5.57 5.57 0 0 0 5.58-5.592 5.57 5.57 0 0 0-5.58-5.591 5.57 5.57 0 0 0-5.579 5.591 5.57 5.57 0 0 0 5.579 5.592ZM707.097 391.366a5.571 5.571 0 0 0 5.58-5.592 5.571 5.571 0 0 0-5.58-5.591 5.571 5.571 0 0 0-5.58 5.591c0 3.1 2.487 5.592 5.58 5.592ZM688.478 398.842a5.57 5.57 0 0 0-5.58 5.591 5.57 5.57 0 0 0 5.58 5.591 5.57 5.57 0 0 0 5.579-5.591 5.57 5.57 0 0 0-5.579-5.591ZM731.296 404.433a5.57 5.57 0 0 0-5.58-5.591 5.57 5.57 0 0 0-5.58 5.591 5.57 5.57 0 0 0 5.58 5.591 5.57 5.57 0 0 0 5.58-5.591ZM688.478 361.524a5.571 5.571 0 0 0-5.58 5.592 5.57 5.57 0 0 0 5.58 5.591 5.57 5.57 0 0 0 5.579-5.591c0-3.039-2.486-5.592-5.579-5.592ZM725.716 361.524a5.571 5.571 0 0 0-5.58 5.592 5.57 5.57 0 0 0 5.58 5.591 5.57 5.57 0 0 0 5.58-5.591c0-3.039-2.487-5.592-5.58-5.592ZM669.858 380.183a5.57 5.57 0 0 0-5.579 5.591 5.57 5.57 0 0 0 5.579 5.592 5.57 5.57 0 0 0 5.58-5.592 5.57 5.57 0 0 0-5.58-5.591ZM744.335 354.11a5.57 5.57 0 0 0 5.58-5.592 5.57 5.57 0 0 0-5.58-5.591 5.57 5.57 0 0 0-5.579 5.591c0 3.039 2.486 5.592 5.579 5.592ZM682.898 441.75a5.57 5.57 0 0 0 5.58 5.591 5.57 5.57 0 0 0 5.579-5.591 5.57 5.57 0 0 0-5.579-5.592 5.571 5.571 0 0 0-5.58 5.592ZM720.258 440.534c2.001-1.397 3.942-2.856 5.883-4.315-.122 0-.303-.061-.425-.061-2.668 0-4.852 1.885-5.458 4.376ZM669.858 454.817a5.57 5.57 0 0 0-5.579 5.591c0 1.52.606 2.918 1.637 3.951a148.135 148.135 0 0 0 9.28-2.31c.181-.486.242-1.033.242-1.58 0-3.16-2.486-5.652-5.58-5.652ZM745.912 417.743c-.485-.121-1.031-.243-1.577-.243a5.57 5.57 0 0 0-5.579 5.591c0 .608.121 1.216.303 1.824 2.365-2.31 4.67-4.68 6.853-7.172ZM707.097 428.683a5.571 5.571 0 0 0 5.58-5.592 5.571 5.571 0 0 0-5.58-5.591 5.571 5.571 0 0 0-5.58 5.591c0 3.1 2.487 5.592 5.58 5.592ZM632.62 193.659a5.57 5.57 0 0 0-5.58 5.591c0 3.1 2.487 5.592 5.58 5.592a5.571 5.571 0 0 0 5.58-5.592 5.57 5.57 0 0 0-5.58-5.591ZM619.641 180.591c0-3.099-2.547-5.591-5.58-5.591a5.57 5.57 0 0 0-5.579 5.591 5.57 5.57 0 0 0 5.579 5.592c3.033 0 5.58-2.492 5.58-5.592ZM656.819 180.591a5.571 5.571 0 0 0-5.58-5.591 5.571 5.571 0 0 0-5.58 5.591c0 3.1 2.487 5.592 5.58 5.592a5.571 5.571 0 0 0 5.58-5.592ZM669.858 242.159a5.57 5.57 0 0 0 5.58-5.592 5.57 5.57 0 0 0-5.58-5.591 5.57 5.57 0 0 0-5.579 5.591 5.57 5.57 0 0 0 5.579 5.592ZM632.62 242.159a5.571 5.571 0 0 0 5.58-5.592 5.57 5.57 0 0 0-5.58-5.591 5.57 5.57 0 0 0-5.58 5.591c0 3.1 2.547 5.592 5.58 5.592ZM614.061 260.817a5.571 5.571 0 0 0 5.58-5.591c0-3.1-2.487-5.592-5.58-5.592a5.57 5.57 0 0 0-5.579 5.592c-.061 3.099 2.486 5.591 5.579 5.591ZM651.239 260.817a5.571 5.571 0 0 0 5.58-5.591c0-3.1-2.487-5.592-5.58-5.592a5.571 5.571 0 0 0-5.58 5.592c0 3.099 2.548 5.591 5.58 5.591ZM614.061 223.5a5.571 5.571 0 0 0 5.58-5.592 5.571 5.571 0 0 0-5.58-5.591 5.57 5.57 0 0 0-5.579 5.591c-.061 3.1 2.486 5.592 5.579 5.592ZM651.239 223.5a5.571 5.571 0 0 0 5.58-5.592 5.571 5.571 0 0 0-5.58-5.591 5.571 5.571 0 0 0-5.58 5.591c0 3.1 2.548 5.592 5.58 5.592ZM632.62 342.866a5.571 5.571 0 0 0-5.58 5.591c0 3.1 2.487 5.592 5.58 5.592a5.571 5.571 0 0 0 5.58-5.592c0-3.038-2.487-5.591-5.58-5.591ZM669.858 316.793a5.57 5.57 0 0 0 5.58-5.592 5.57 5.57 0 0 0-5.58-5.591 5.57 5.57 0 0 0-5.579 5.591 5.57 5.57 0 0 0 5.579 5.592ZM632.62 305.549a5.571 5.571 0 0 0-5.58 5.591c0 3.1 2.487 5.592 5.58 5.592a5.571 5.571 0 0 0 5.58-5.592c0-3.039-2.487-5.591-5.58-5.591ZM614.061 324.207a5.57 5.57 0 0 0-5.579 5.592 5.57 5.57 0 0 0 5.579 5.591 5.57 5.57 0 0 0 5.58-5.591c0-3.039-2.547-5.592-5.58-5.592ZM651.239 324.207a5.571 5.571 0 0 0-5.58 5.592 5.57 5.57 0 0 0 5.58 5.591 5.57 5.57 0 0 0 5.58-5.591c0-3.039-2.487-5.592-5.58-5.592ZM614.061 286.951a5.57 5.57 0 0 0-5.579 5.592 5.57 5.57 0 0 0 5.579 5.591 5.571 5.571 0 0 0 5.58-5.591c0-3.1-2.547-5.592-5.58-5.592ZM651.239 286.951a5.571 5.571 0 0 0-5.58 5.592 5.571 5.571 0 0 0 5.58 5.591 5.571 5.571 0 0 0 5.58-5.591c0-3.1-2.487-5.592-5.58-5.592ZM595.442 342.866a5.571 5.571 0 0 0-5.58 5.591c0 3.1 2.487 5.592 5.58 5.592a5.571 5.571 0 0 0 5.58-5.592c0-3.038-2.548-5.591-5.58-5.591ZM595.442 305.549a5.571 5.571 0 0 0-5.58 5.591c0 3.1 2.487 5.592 5.58 5.592a5.571 5.571 0 0 0 5.58-5.592c0-3.039-2.548-5.591-5.58-5.591ZM632.62 279.476a5.571 5.571 0 0 0 5.58-5.592 5.57 5.57 0 0 0-5.58-5.591 5.57 5.57 0 0 0-5.58 5.591c0 3.039 2.547 5.592 5.58 5.592ZM632.62 417.5a5.571 5.571 0 0 0-5.58 5.591c0 3.1 2.487 5.592 5.58 5.592a5.571 5.571 0 0 0 5.58-5.592 5.571 5.571 0 0 0-5.58-5.591ZM632.62 380.183a5.571 5.571 0 0 0-5.58 5.591c0 3.1 2.487 5.592 5.58 5.592a5.571 5.571 0 0 0 5.58-5.592 5.571 5.571 0 0 0-5.58-5.591ZM614.061 398.842a5.57 5.57 0 0 0-5.579 5.591 5.57 5.57 0 0 0 5.579 5.591 5.57 5.57 0 0 0 5.58-5.591c0-3.1-2.547-5.591-5.58-5.591ZM651.239 398.842a5.57 5.57 0 0 0-5.58 5.591 5.57 5.57 0 0 0 5.58 5.591 5.57 5.57 0 0 0 5.58-5.591 5.57 5.57 0 0 0-5.58-5.591ZM614.061 361.524a5.57 5.57 0 0 0-5.579 5.592 5.57 5.57 0 0 0 5.579 5.591 5.57 5.57 0 0 0 5.58-5.591c0-3.039-2.547-5.592-5.58-5.592ZM651.239 361.524a5.571 5.571 0 0 0-5.58 5.592 5.57 5.57 0 0 0 5.58 5.591 5.57 5.57 0 0 0 5.58-5.591c0-3.039-2.487-5.592-5.58-5.592ZM595.442 380.183a5.571 5.571 0 0 0-5.58 5.591c0 3.1 2.487 5.592 5.58 5.592a5.571 5.571 0 0 0 5.58-5.592c0-3.099-2.548-5.591-5.58-5.591ZM632.62 454.817a5.571 5.571 0 0 0-5.58 5.591c0 3.1 2.487 5.592 5.58 5.592a5.571 5.571 0 0 0 5.58-5.592 5.571 5.571 0 0 0-5.58-5.591ZM608.421 441.75a5.57 5.57 0 0 0 5.58 5.591 5.57 5.57 0 0 0 5.579-5.591 5.57 5.57 0 0 0-5.579-5.592c-3.033 0-5.58 2.492-5.58 5.592ZM645.659 441.75a5.57 5.57 0 0 0 5.58 5.591 5.57 5.57 0 0 0 5.58-5.591c0-3.1-2.487-5.592-5.58-5.592-3.032 0-5.58 2.492-5.58 5.592ZM595.442 454.817a5.571 5.571 0 0 0-5.58 5.591c0 .183.061.304.061.487a137.89 137.89 0 0 0 10.128 2.735c.607-.912 1.031-2.006 1.031-3.222-.06-3.099-2.608-5.591-5.64-5.591ZM669.858 428.683a5.57 5.57 0 0 0 5.58-5.592 5.57 5.57 0 0 0-5.58-5.591 5.57 5.57 0 0 0-5.579 5.591 5.57 5.57 0 0 0 5.579 5.592ZM558.203 193.659a5.57 5.57 0 0 0-5.579 5.591 5.57 5.57 0 0 0 5.579 5.592 5.57 5.57 0 0 0 5.58-5.592 5.57 5.57 0 0 0-5.58-5.591ZM576.823 186.183a5.57 5.57 0 0 0 5.579-5.592 5.307 5.307 0 0 0-.849-2.917c-3.457 1.337-6.853 2.735-10.128 4.315.606 2.371 2.79 4.194 5.398 4.194ZM595.442 242.159a5.571 5.571 0 0 0 5.58-5.592 5.57 5.57 0 0 0-5.58-5.591 5.57 5.57 0 0 0-5.58 5.591c0 3.1 2.487 5.592 5.58 5.592ZM558.203 242.159a5.586 5.586 0 0 0 5.58-5.592 5.585 5.585 0 0 0-5.58-5.591 5.585 5.585 0 0 0-5.579 5.591c0 3.088 2.498 5.592 5.579 5.592ZM545.164 255.226c0-3.1-2.487-5.592-5.58-5.592a5.57 5.57 0 0 0-5.579 5.592 5.57 5.57 0 0 0 5.579 5.591 5.571 5.571 0 0 0 5.58-5.591ZM576.823 260.817a5.57 5.57 0 0 0 5.579-5.591 5.57 5.57 0 0 0-5.579-5.592 5.571 5.571 0 0 0-5.58 5.592 5.571 5.571 0 0 0 5.58 5.591ZM534.005 217.908a5.57 5.57 0 0 0 5.579 5.592 5.571 5.571 0 0 0 5.58-5.592 5.571 5.571 0 0 0-5.58-5.591 5.57 5.57 0 0 0-5.579 5.591ZM576.823 223.5a5.57 5.57 0 0 0 5.579-5.592 5.57 5.57 0 0 0-5.579-5.591 5.571 5.571 0 0 0-5.58 5.591c0 3.1 2.487 5.592 5.58 5.592ZM595.442 204.842a5.571 5.571 0 0 0 5.58-5.592 5.57 5.57 0 0 0-5.58-5.591 5.57 5.57 0 0 0-5.58 5.591c0 3.1 2.487 5.592 5.58 5.592ZM558.203 342.866a5.57 5.57 0 0 0-5.579 5.591 5.57 5.57 0 0 0 5.579 5.592 5.57 5.57 0 0 0 5.58-5.592c0-3.038-2.486-5.591-5.58-5.591ZM558.203 305.549a5.57 5.57 0 0 0-5.579 5.591 5.57 5.57 0 0 0 5.579 5.592 5.57 5.57 0 0 0 5.58-5.592c0-3.039-2.486-5.591-5.58-5.591ZM539.584 324.207a5.57 5.57 0 0 0-5.579 5.592 5.57 5.57 0 0 0 5.579 5.591 5.57 5.57 0 0 0 5.58-5.591c0-3.039-2.487-5.592-5.58-5.592ZM576.823 324.207a5.571 5.571 0 0 0-5.58 5.592 5.57 5.57 0 0 0 5.58 5.591 5.57 5.57 0 0 0 5.579-5.591c0-3.039-2.547-5.592-5.579-5.592ZM539.584 286.951a5.57 5.57 0 0 0-5.579 5.592 5.57 5.57 0 0 0 5.579 5.591 5.571 5.571 0 0 0 5.58-5.591c0-3.1-2.487-5.592-5.58-5.592ZM576.823 286.951a5.571 5.571 0 0 0-5.58 5.592 5.571 5.571 0 0 0 5.58 5.591 5.57 5.57 0 0 0 5.579-5.591c0-3.1-2.547-5.592-5.579-5.592ZM520.965 342.866a5.571 5.571 0 0 0-5.58 5.591c0 3.1 2.487 5.592 5.58 5.592a5.571 5.571 0 0 0 5.58-5.592c0-3.038-2.487-5.591-5.58-5.591ZM520.965 305.549a5.571 5.571 0 0 0-5.58 5.591c0 3.1 2.487 5.592 5.58 5.592a5.571 5.571 0 0 0 5.58-5.592c0-3.039-2.487-5.591-5.58-5.591ZM595.442 279.476a5.571 5.571 0 0 0 5.58-5.592 5.57 5.57 0 0 0-5.58-5.591 5.57 5.57 0 0 0-5.58 5.591c0 3.039 2.487 5.592 5.58 5.592ZM558.203 279.476a5.57 5.57 0 0 0 5.58-5.592 5.57 5.57 0 0 0-5.58-5.591 5.57 5.57 0 0 0-5.579 5.591c0 3.039 2.486 5.592 5.579 5.592ZM558.203 380.183a5.57 5.57 0 0 0-5.579 5.591 5.57 5.57 0 0 0 5.579 5.592 5.57 5.57 0 0 0 5.58-5.592 5.57 5.57 0 0 0-5.58-5.591ZM539.584 398.842a5.57 5.57 0 0 0-5.579 5.591 5.57 5.57 0 0 0 5.579 5.591 5.57 5.57 0 0 0 5.58-5.591 5.57 5.57 0 0 0-5.58-5.591ZM576.823 398.842a5.57 5.57 0 0 0-5.58 5.591 5.57 5.57 0 0 0 5.58 5.591 5.57 5.57 0 0 0 5.579-5.591c0-3.1-2.547-5.591-5.579-5.591ZM539.584 361.524a5.57 5.57 0 0 0-5.579 5.592 5.57 5.57 0 0 0 5.579 5.591 5.57 5.57 0 0 0 5.58-5.591c0-3.039-2.487-5.592-5.58-5.592ZM576.823 361.524a5.571 5.571 0 0 0-5.58 5.592 5.57 5.57 0 0 0 5.58 5.591 5.57 5.57 0 0 0 5.579-5.591c0-3.039-2.547-5.592-5.579-5.592ZM526.12 421.025c-.485-1.276-1.516-2.309-2.729-2.917l2.729 2.917ZM526.545 385.774a5.571 5.571 0 0 0-5.58-5.591 5.571 5.571 0 0 0-5.58 5.591c0 3.1 2.487 5.592 5.58 5.592a5.571 5.571 0 0 0 5.58-5.592ZM571.243 441.75a5.57 5.57 0 0 0 5.58 5.591 5.57 5.57 0 0 0 5.579-5.591 5.57 5.57 0 0 0-5.579-5.592 5.571 5.571 0 0 0-5.58 5.592ZM595.442 428.683a5.571 5.571 0 0 0 5.58-5.592 5.571 5.571 0 0 0-5.58-5.591 5.571 5.571 0 0 0-5.58 5.591c0 3.1 2.487 5.592 5.58 5.592ZM558.203 428.683a5.57 5.57 0 0 0 5.58-5.592 5.57 5.57 0 0 0-5.58-5.591 5.57 5.57 0 0 0-5.579 5.591 5.57 5.57 0 0 0 5.579 5.592ZM520.965 242.159a5.571 5.571 0 0 0 5.58-5.592 5.57 5.57 0 0 0-5.58-5.591 5.57 5.57 0 0 0-5.58 5.591c0 3.1 2.487 5.592 5.58 5.592ZM502.346 260.817a5.57 5.57 0 0 0 5.579-5.591 5.57 5.57 0 0 0-5.579-5.592c-.364 0-.667.061-1.031.122-1.335 2.674-2.669 5.409-3.882 8.144.97 1.701 2.79 2.917 4.913 2.917ZM487.365 344.264c.425 2.249.849 4.497 1.335 6.746.363-.729.606-1.58.606-2.492 0-1.762-.788-3.221-1.941-4.254ZM489.306 311.201c0-2.492-1.637-4.558-3.821-5.287A125.16 125.16 0 0 0 485 316.61c2.487-.607 4.306-2.795 4.306-5.409ZM502.346 335.451a5.57 5.57 0 0 0 5.579-5.591 5.57 5.57 0 0 0-5.579-5.592 5.57 5.57 0 0 0-5.58 5.592c0 3.039 2.486 5.591 5.58 5.591ZM496.766 292.543a5.57 5.57 0 0 0 5.58 5.591 5.57 5.57 0 0 0 5.579-5.591 5.57 5.57 0 0 0-5.579-5.592 5.57 5.57 0 0 0-5.58 5.592ZM520.965 279.476a5.571 5.571 0 0 0 5.58-5.592 5.57 5.57 0 0 0-5.58-5.591 5.57 5.57 0 0 0-5.58 5.591c0 3.039 2.487 5.592 5.58 5.592ZM496.766 367.116a5.57 5.57 0 0 0 5.58 5.591 5.57 5.57 0 0 0 5.579-5.591 5.57 5.57 0 0 0-5.579-5.592c-3.094 0-5.58 2.553-5.58 5.592Z"/></g><path fill="#E1E7EA" d="m228.722 483.354-12.584 26.165-28.303-6.473-12.584 26.166-28.327-6.462-12.362 25.702.011.024-.11.202-28.292-6.449-12.595 26.142-28.292-6.449-12.62 26.153-28.292-6.449L12 607.304l1.535 3.186 12.362-25.702 28.303 6.473 12.608-26.177 28.303 6.473 12.584-26.165 28.304 6.473.147-.309-.011-.024 12.324-25.595 28.316 6.437 12.596-26.141 28.291 6.449 12.596-26.142 28.292 6.449.147-.309-1.523-3.162-.147.309-28.304-6.473ZM245.735 466.386l-28.303-6.474-12.584 26.166-28.303-6.473-12.584 26.166-28.327-6.462-12.362 25.702.011.024-.11.202-28.292-6.449-12.595 26.142-28.292-6.449-12.62 26.153-28.292-6.449L.72 583.887l1.524 3.162 12.361-25.702 28.304 6.473 12.608-26.177 28.303 6.473 12.584-26.165 28.304 6.473.147-.309-.011-.024 12.324-25.595 28.316 6.437 12.596-26.141 28.291 6.449 12.596-26.142 28.292 6.449.147-.309-1.523-3.162-.148.309ZM251.395 530.429l-12.596 26.141-28.291-6.449-12.596 26.142-28.316-6.437-12.373 25.677.011.025-.098.226-28.304-6.474-12.584 26.166-28.303-6.473-12.608 26.177-28.303-6.473-12.362 25.702 1.523 3.163 12.362-25.702 28.303 6.473 12.608-26.178 28.304 6.474 12.583-26.166 28.304 6.473.147-.309-.011-.024 12.324-25.595 28.316 6.438 12.596-26.142 28.292 6.449 12.595-26.142 28.292 6.449.159-.284-1.535-3.187-.147.309-28.292-6.449ZM240.105 506.988l-12.595 26.141-28.292-6.449-12.596 26.142-28.315-6.438-12.374 25.678.012.024-.099.226-28.304-6.473-12.583 26.166-28.304-6.473-12.608 26.177-28.303-6.473-12.362 25.702 1.523 3.162 12.374-25.677 28.291 6.449 12.62-26.154 28.292 6.449 12.595-26.141 28.292 6.449.148-.309-.012-.024 12.325-25.595 28.316 6.437 12.595-26.141 28.292 6.449 12.595-26.142 28.292 6.449.159-.285-1.523-3.162-.159.285-28.292-6.449Z"/><path fill="#01A6FF" d="M111.904 472.4a4.961 4.961 0 0 1-4.145-5.657c.405-2.722 2.96-4.573 5.666-4.153a4.961 4.961 0 0 1 4.145 5.657 4.964 4.964 0 0 1-5.666 4.153Z"/><path fill="#FFC01E" d="M133.071 426.893a2.765 2.765 0 0 1-2.311-3.154 2.761 2.761 0 0 1 3.159-2.315 2.767 2.767 0 0 1-.848 5.469Z"/><g clip-path="url(#b)"><path fill="#01A6FF" d="m171 20 20 20 20-20-20-20-20 20Zm33.773 0L191 33.773 177.227 20 191 6.227 204.773 20Z"/></g><defs><clipPath id="a"><path fill="#fff" d="M485 175h299v291H485z"/></clipPath><clipPath id="b"><path fill="#fff" d="M171 0h40v40h-40z"/></clipPath></defs></svg>