<svg width="23" height="22" viewBox="0 0 23 22" fill="none" xmlns="http://www.w3.org/2000/svg">
<g clip-path="url(#clip0_19_1255)">
<path d="M22.4884 11.2059C22.4884 10.3045 22.4135 9.64681 22.2516 8.96472H11.7191V13.0329H17.9014C17.7768 14.0439 17.1037 15.5664 15.608 16.5895L15.587 16.7257L18.9172 19.2467L19.1479 19.2692C21.2668 17.3569 22.4884 14.5432 22.4884 11.2059Z" fill="#4285F4"/>
<path d="M11.7191 21.9244C14.7479 21.9244 17.2906 20.9499 19.1478 19.2691L15.6079 16.5894C14.6607 17.2349 13.3893 17.6856 11.7191 17.6856C8.75255 17.6856 6.23475 15.7734 5.33723 13.1302L5.20567 13.1412L1.74292 15.7599L1.69763 15.8829C3.54235 19.4639 7.33154 21.9244 11.7191 21.9244Z" fill="#34A853"/>
<path d="M5.33725 13.1303C5.10043 12.4482 4.96337 11.7174 4.96337 10.9622C4.96337 10.207 5.10043 9.47621 5.32479 8.79413L5.31852 8.64886L1.81237 5.98804L1.69765 6.04136C0.937358 7.52737 0.501099 9.19609 0.501099 10.9622C0.501099 12.7284 0.937358 14.397 1.69765 15.883L5.33725 13.1303Z" fill="#FBBC05"/>
<path d="M11.7191 4.23869C13.8255 4.23869 15.2464 5.12785 16.0567 5.87089L19.2226 2.85018C17.2782 1.08405 14.7479 0 11.7191 0C7.33154 0 3.54235 2.46039 1.69763 6.04135L5.32477 8.79412C6.23475 6.15102 8.75254 4.23869 11.7191 4.23869Z" fill="#EB4335"/>
</g>
<defs>
<clipPath id="clip0_19_1255">
<rect width="22" height="22" fill="white" transform="translate(0.5)"/>
</clipPath>
</defs>
</svg>
