<svg width="1420" height="900" fill="none" xmlns="http://www.w3.org/2000/svg"><path fill-rule="evenodd" clip-rule="evenodd" d="M1395.24 188.544c-21.42 47.365-47.4 132.281-68.4 274.671-32.72 221.796-234.26 381.968-451.996 424.981-110.622 21.852-230.002 14.689-338.533-32.643-109.417-47.718-201.436-133.511-261.113-258.537C125.048 282.444-187.904 329.284-307 325.5l6.335-161.863c174.597 5.547 558.255-13.479 741.006 369.393 44.354 92.924 107.619 147.663 174.292 176.74 67.56 29.463 145.076 35.359 221.71 20.22 156.78-30.971 291.187-144.987 312.297-288.109 22.05-149.545 50.72-249.421 80.12-314.447 14.63-32.354 30.74-59.002 48.72-79.29C1292.05 31.7 1321.55 3.775 1366.43 0l16.7 161.263c19.85-1.669 31.43-9.378 35.35-12.639-.16.176-.34.369-.52.58-3.59 4.051-11.94 15.499-22.72 39.34Zm24.76-41.377c0 .061-.5.608-1.52 1.457 1.01-1.095 1.52-1.519 1.52-1.457Z" fill="url(#a)" fill-opacity=".42"/><path fill-rule="evenodd" clip-rule="evenodd" d="M1395.24 188.544c-21.42 47.365-47.4 132.281-68.4 274.671-32.72 221.796-234.26 381.968-451.996 424.981-110.622 21.852-230.002 14.689-338.533-32.643-109.417-47.718-201.436-133.511-261.113-258.537C125.048 282.444-187.904 329.284-307 325.5l6.335-161.863c174.597 5.547 558.255-13.479 741.006 369.393 44.354 92.924 107.619 147.663 174.292 176.74 67.56 29.463 145.076 35.359 221.71 20.22 156.78-30.971 291.187-144.987 312.297-288.109 22.05-149.545 50.72-249.421 80.12-314.447 14.63-32.354 30.74-59.002 48.72-79.29C1292.05 31.7 1321.55 3.775 1366.43 0l16.7 161.263c19.85-1.669 31.43-9.378 35.35-12.639-.16.176-.34.369-.52.58-3.59 4.051-11.94 15.499-22.72 39.34Zm24.76-41.377c0 .061-.5.608-1.52 1.457 1.01-1.095 1.52-1.519 1.52-1.457Z" fill="url(#b)" fill-opacity=".42"/><defs><linearGradient id="a" x1="1309.5" y1="189.5" x2="563" y2="900" gradientUnits="userSpaceOnUse"><stop stop-color="#34B9F0"/><stop offset="1" stop-color="#fff" stop-opacity="0"/></linearGradient><linearGradient id="b" x1="-211.5" y1="183.5" x2="563" y2="900" gradientUnits="userSpaceOnUse"><stop stop-color="#FFE092"/><stop offset="1" stop-color="#fff" stop-opacity="0"/></linearGradient></defs></svg>